<?xml version="1.0" encoding="utf-8"?>
<!-- Generator: Adobe Illustrator 23.0.6, SVG Export Plug-In . SVG Version: 6.00 Build 0)  -->
<svg version="1.1" id="Capa_1" xmlns="http://www.w3.org/2000/svg" xmlns:xlink="http://www.w3.org/1999/xlink" x="0px" y="0px"
	 viewBox="0 0 1080 688" style="enable-background:new 0 0 1080 688;" xml:space="preserve">
<style type="text/css">
	.st0{opacity:0.3;}
	.st1{opacity:0.22;}
	.st2{fill:#84DCF2;}
	.st3{fill:#1C1C1B;}
	.st4{fill:#B4B4B4;}
	.st5{fill:#3C3C3A;}
	.st6{fill:#707070;}
	.st7{fill:#FFFFFF;}
	.st8{fill:none;stroke:#325975;stroke-width:3.3;stroke-linecap:round;stroke-linejoin:round;stroke-miterlimit:10;}
	.st9{fill:#F29BB4;}
	.st10{fill:#EF82A2;}
	.st11{fill:none;stroke:#325975;stroke-width:2.75;stroke-linecap:round;stroke-linejoin:round;stroke-miterlimit:10;}
	.st12{fill:#F7C3D2;}
	.st13{fill:#F29101;}
</style>
<g>
	<g class="st0">
		<g class="st1">
			<path class="st2" d="M576.71,143.63c-92.96,29.68-387.41-116.67-364.36,83.23c3.6,29.72,22.75,71.71,6.58,99.46
				c-11.72,20.78-33.19,32.96-53.93,41.04c-54.19,22.03-74.36,63.37-60.64,122.38c36.71,159,236.52,121.3,341.41,74.15
				c74.6-35.08,162.58-41.11,239.82-11.43c60.52,24.17,98.24,74.86,169.27,60.01c62.99-12.64,72.49-72.11,54.1-127.47
				c-10.45-34.25-17.95-48.72,2.77-81.78c17.47-32.83,48.21-57.71,50.57-96.18c0.52-41.66-18.63-83.64-55.68-99.42
				c-30.31-12.91-57.79-7.7-87.78-15.64c-66.7-18.75-109.56-122.38-192.31-86.74c-20.63,9.74-32.24,32.18-54.72,38.72"/>
		</g>
		<g class="st0">
			<g>
				<g>
					<path class="st2" d="M543,125.57c3.54,0,3.54-5.5,0-5.5C539.46,120.07,539.46,125.57,543,125.57L543,125.57z"/>
				</g>
			</g>
			<g>
				<g>
					<path class="st2" d="M156.01,322.64c2.88,0,5.63-2.53,5.5-5.5c-0.13-2.98-2.42-5.5-5.5-5.5c-2.88,0-5.63,2.53-5.5,5.5
						C150.64,320.12,152.92,322.64,156.01,322.64L156.01,322.64z"/>
				</g>
			</g>
			<g>
				<g>
					<path class="st2" d="M941.43,426.82c2.88,0,5.63-2.53,5.5-5.5c-0.13-2.98-2.42-5.5-5.5-5.5c-2.88,0-5.63,2.53-5.5,5.5
						C936.06,424.29,938.34,426.82,941.43,426.82L941.43,426.82z"/>
				</g>
			</g>
			<g>
				<g>
					<path class="st2" d="M498.91,115.26c2.88,0,5.63-2.53,5.5-5.5c-0.13-2.98-2.42-5.5-5.5-5.5c-2.88,0-5.63,2.53-5.5,5.5
						C493.55,112.74,495.83,115.26,498.91,115.26L498.91,115.26z"/>
				</g>
			</g>
			<g>
				<g>
					<path class="st2" d="M967.55,383.07c3.74,0,7.32-3.29,7.15-7.15c-0.17-3.87-3.14-7.15-7.15-7.15c-3.74,0-7.32,3.29-7.15,7.15
						C960.58,379.79,963.55,383.07,967.55,383.07L967.55,383.07z"/>
				</g>
			</g>
			<g>
				<g>
					<path class="st2" d="M111.92,363.48c3.74,0,7.32-3.29,7.15-7.15c-0.17-3.87-3.14-7.15-7.15-7.15c-3.74,0-7.32,3.29-7.15,7.15
						C104.94,360.2,107.91,363.48,111.92,363.48L111.92,363.48z"/>
				</g>
			</g>
			<g>
				<g>
					<path class="st2" d="M836.92,159.36c3.74,0,7.32-3.29,7.15-7.15c-0.17-3.87-3.14-7.15-7.15-7.15c-3.74,0-7.32,3.29-7.15,7.15
						C829.95,156.09,832.91,159.36,836.92,159.36L836.92,159.36z"/>
				</g>
			</g>
			<g>
				<g>
					<path class="st2" d="M536.47,90.25c4.32,0,8.45-3.79,8.25-8.25c-0.2-4.47-3.62-8.25-8.25-8.25c-4.32,0-8.45,3.79-8.25,8.25
						C528.42,86.47,531.84,90.25,536.47,90.25L536.47,90.25z"/>
				</g>
			</g>
			<g>
				<g>
					<path class="st2" d="M981.6,417.93c2.16,0,4.22-1.9,4.13-4.13c-0.1-2.23-1.81-4.13-4.13-4.13c-2.16,0-4.22,1.9-4.13,4.13
						C977.57,416.04,979.29,417.93,981.6,417.93L981.6,417.93z"/>
				</g>
			</g>
			<g>
				<g>
					<path class="st2" d="M107.35,313.1c2.16,0,4.22-1.9,4.13-4.13c-0.1-2.23-1.81-4.13-4.13-4.13c-2.16,0-4.22,1.9-4.13,4.13
						C103.32,311.21,105.03,313.1,107.35,313.1L107.35,313.1z"/>
				</g>
			</g>
			<g>
				<g>
					<path class="st2" d="M877.74,182.47c2.16,0,4.22-1.9,4.13-4.13c-0.1-2.23-1.81-4.13-4.13-4.13c-2.16,0-4.22,1.9-4.13,4.13
						C873.72,180.58,875.43,182.47,877.74,182.47L877.74,182.47z"/>
				</g>
			</g>
			<g>
				<g>
					<path class="st2" d="M874.48,148.43c3.54,0,3.54-5.5,0-5.5C870.94,142.93,870.93,148.43,874.48,148.43L874.48,148.43z"/>
				</g>
			</g>
			<g>
				<g>
					<path class="st2" d="M212.83,122.12c2.88,0,5.63-2.53,5.5-5.5c-0.13-2.98-2.42-5.5-5.5-5.5c-2.88,0-5.63,2.53-5.5,5.5
						C207.47,119.6,209.75,122.12,212.83,122.12L212.83,122.12z"/>
				</g>
			</g>
			<g>
				<g>
					<path class="st2" d="M956.12,572.47c2.88,0,5.63-2.53,5.5-5.5c-0.13-2.98-2.42-5.5-5.5-5.5c-2.88,0-5.63,2.53-5.5,5.5
						C950.76,569.95,953.04,572.47,956.12,572.47L956.12,572.47z"/>
				</g>
			</g>
			<g>
				<g>
					<path class="st2" d="M107.02,583.9c2.88,0,5.63-2.53,5.5-5.5c-0.13-2.98-2.42-5.5-5.5-5.5c-2.88,0-5.63,2.53-5.5,5.5
						C101.65,581.38,103.94,583.9,107.02,583.9L107.02,583.9z"/>
				</g>
			</g>
			<g>
				<g>
					<path class="st2" d="M252.02,106.3c3.54,0,3.54-5.5,0-5.5C248.48,100.8,248.48,106.3,252.02,106.3L252.02,106.3z"/>
				</g>
			</g>
			<g>
				<g>
					<path class="st2" d="M957.76,524c3.54,0,3.54-5.5,0-5.5C954.22,518.5,954.21,524,957.76,524L957.76,524z"/>
				</g>
			</g>
			<g>
				<g>
					<path class="st2" d="M146.21,604.01c3.54,0,3.54-5.5,0-5.5C142.67,598.51,142.66,604.01,146.21,604.01L146.21,604.01z"/>
				</g>
			</g>
		</g>
	</g>
	<g>
		<g>
			<g>
				<g>
					<g>
						<g>
							<path class="st3" d="M333.44,390.59c-3.37,1.3-6.96,2.5-10.6,2.58c-2.39,0.06-4.34-0.35-6.26-1.63
								c-1.57-1.04-2.88-2.76-3.99-4.66c-1.31-2.25-2.41-4.82-3.38-7.11c-2.55-6.05-5.13-12.05-9.19-17.28
								c-4.06-5.23-9.26-10.85-16.19-11.7c-2.6-0.32-5.22,0.09-7.78,0.51c-3.09,0.51-6.16,1.04-9.29,1.23
								c-4.34,0.26-8.71-0.3-12.99-1c-3.54-0.58-7.06-1.36-10.44-2.56c-2.37-0.84-4.67-1.93-6.8-3.45c-0.56-0.4-0.51-0.36-1.06-0.82
								c-0.43-0.36-0.84-0.75-1.23-1.15c-0.34-0.34-0.66-0.7-0.97-1.07c-0.07-0.08-0.49-0.62-0.23-0.27
								c-0.18-0.23-0.34-0.47-0.51-0.71c-0.56-0.83-1.06-1.7-1.48-2.61c-0.04-0.08-0.29-0.66-0.21-0.46
								c0.07,0.17-0.17-0.44-0.21-0.55c-0.18-0.49-0.35-0.98-0.5-1.47c-0.29-0.96-0.53-1.93-0.72-2.92
								c-0.09-0.47-0.18-0.95-0.26-1.43c-0.04-0.27-0.09-0.55-0.13-0.82c-0.02-0.12-0.04-0.25-0.05-0.37
								c-0.03-0.25,0.04,0.3-0.01-0.1c-0.58-4.68-0.71-9.4-1.22-14.09c-0.6-5.53-1.65-11-3.7-16.19c-0.58-1.47-1.22-2.91-1.92-4.32
								c-1.18-2.38-4.74-0.29-3.56,2.08c2.5,5.03,3.97,10.53,4.77,16.12c0.62,4.33,0.81,9.61,1.27,14.32
								c0.43,4.4,1.14,8.82,3.15,12.81c2.12,4.2,5.75,7.39,9.91,9.5c6.59,3.34,14.11,4.57,21.38,5.35c4.2,0.45,8.23,0.39,12.42-0.18
								c1.58-0.21,3.15-0.47,4.72-0.74c1.43-0.24,2.51-0.43,3.74-0.55c1.16-0.11,2.33-0.14,3.5-0.03c0.42,0.04,0.15,0.01,0.05,0
								c0.17,0.02,0.34,0.05,0.5,0.08c0.3,0.06,0.61,0.12,0.9,0.2c0.56,0.15,1.25,0.39,1.54,0.52c3.13,1.39,5.63,3.9,7.89,6.41
								c4.61,5.13,7.67,11.07,10.33,17.38c2.01,4.77,3.92,10.28,7.8,13.99c4.4,4.21,10.45,4.38,16.09,3.02
								c2.05-0.49,4.04-1.17,6-1.93c1.04-0.4,1.76-1.39,1.44-2.54C335.71,391.03,334.49,390.18,333.44,390.59L333.44,390.59z"/>
						</g>
					</g>
					<g>
						<g>
							<g>
								<path class="st3" d="M231.11,282.67c-0.8,1.06-1.67,2.1-2.6,3.07c-0.43,0.45-0.87,0.88-1.33,1.29
									c-0.24,0.22-0.49,0.43-0.74,0.64c-0.1,0.09-0.21,0.17-0.31,0.25c-0.06,0.05-0.12,0.1-0.19,0.15
									c0.1-0.08,0.11-0.08,0.02-0.02c-2,1.52-4.22,2.7-6.46,3.82c-0.8,0.4-1.02,1.52-0.59,2.26c0.47,0.81,1.46,0.99,2.26,0.59
									c2.38-1.19,4.71-2.46,6.82-4.1c2.31-1.79,4.21-3.96,5.97-6.29c0.54-0.71,0.11-1.84-0.59-2.26
									C232.52,281.58,231.65,281.95,231.11,282.67L231.11,282.67z"/>
							</g>
						</g>
						<g>
							<g>
								<path class="st3" d="M217.39,271.09c-0.06,8.29,1.29,16.53,1.31,24.82c0.01,2.12,3.31,2.13,3.3,0
									c-0.02-8.29-1.36-16.54-1.31-24.82C220.7,268.96,217.4,268.96,217.39,271.09L217.39,271.09z"/>
							</g>
						</g>
						<g>
							<g>
								<path class="st3" d="M203.5,277.48c5.08,6.35,10.27,12.97,17.31,17.24c1.82,1.1,3.48-1.75,1.67-2.85
									c-6.78-4.11-11.76-10.62-16.65-16.72c-0.56-0.7-1.75-0.58-2.33,0C202.81,275.84,202.94,276.78,203.5,277.48L203.5,277.48z"
									/>
							</g>
						</g>
						<g>
							<g>
								<path class="st3" d="M196.97,289.24c3.15,3.1,6.99,5.52,11.34,6.47c4.16,0.9,8.44,0.5,12.47-0.82
									c2.01-0.66,1.15-3.84-0.88-3.18c-3.46,1.13-7.13,1.6-10.72,0.82c-3.82-0.83-7.12-2.89-9.89-5.62
									C197.79,285.41,195.45,287.74,196.97,289.24L196.97,289.24z"/>
							</g>
						</g>
					</g>
				</g>
				<g>
					<g>
						<g>
							<path class="st3" d="M730.56,412.17c0.01-3.77,0.24-7.6,1.43-11.21c0.78-2.39,1.97-4.35,3.93-5.95
								c0.16-0.13,0.08-0.07,0.44-0.32c0.24-0.16,0.49-0.32,0.74-0.48c0.51-0.31,1.05-0.58,1.59-0.82c0.18-0.08,0.12-0.06,0.55-0.21
								c0.29-0.11,0.59-0.21,0.89-0.31c0.65-0.21,1.32-0.39,1.98-0.54c2.89-0.67,5.58-0.88,8.62-1.1c6.98-0.49,14.06-0.53,21-1.53
								c3.75-0.54,7.28-1.83,9.12-5.38c0.96-1.86,1.54-3.91,2.12-5.91c0.85-2.9,1.7-5.79,2.69-8.64c1.99-5.72,5.02-10.8,9.84-14.08
								c4.39-2.99,9.19-4.4,14.45-5.52c5.14-1.09,10.36-1.75,15.46-3.02c4.87-1.22,9.67-3.1,13.44-6.5
								c4.37-3.95,6.61-9.63,7.44-15.36c0.28-1.94,0.46-3.89,0.52-5.86c0.09-2.66-4.03-2.65-4.13,0c-0.12,3.43-0.53,6.84-1.6,10.12
								c-0.74,2.28-2.07,4.81-3.5,6.48c-1.66,1.94-3.09,3.02-5.29,4.22c-2.1,1.15-3.99,1.82-6.49,2.52
								c-10.16,2.85-21.2,2.84-30.57,8.2c-5.17,2.96-9.23,7.5-11.71,12.91c-2.5,5.44-3.63,11.33-5.66,16.93
								c-0.07,0.19-0.14,0.37-0.21,0.56c-0.04,0.11-0.09,0.22-0.13,0.33c-0.12,0.28,0.22-0.46,0.02-0.05
								c-0.17,0.35-0.33,0.7-0.52,1.03c-0.12,0.21-0.78,1.06-0.34,0.56c-0.23,0.26-0.46,0.5-0.7,0.74
								c-0.07,0.07-0.15,0.12-0.22,0.18c-0.2,0.18,0.44-0.29,0.1-0.08c-0.13,0.08-0.26,0.18-0.39,0.26
								c-0.16,0.1-0.32,0.18-0.48,0.27c-0.31,0.17-0.46,0.2-0.22,0.11c-0.89,0.34-1.81,0.58-2.75,0.77
								c-2.51,0.49-5.39,0.65-8.29,0.83c-3.83,0.23-7.66,0.45-11.49,0.69c-5.7,0.37-11.98,0.62-17.06,3.54
								c-5.54,3.19-7.66,9.22-8.4,15.26c-0.26,2.11-0.35,4.24-0.35,6.37C726.43,414.82,730.55,414.83,730.56,412.17L730.56,412.17z"
								/>
						</g>
					</g>
					<g>
						<g>
							<g>
								<path class="st3" d="M828.8,306.8c2.88,7.11,8.41,12.64,15.52,15.52c0.83,0.33,1.81-0.36,2.03-1.15
									c0.26-0.94-0.32-1.69-1.15-2.03c-5.92-2.4-10.82-7.29-13.22-13.22c-0.33-0.83-1.1-1.41-2.03-1.15
									C829.17,304.98,828.46,305.97,828.8,306.8L828.8,306.8z"/>
							</g>
						</g>
						<g>
							<g>
								<path class="st3" d="M840.5,297.22c0,6.53,0,13.06,0,19.59c0,2.12,3.3,2.13,3.3,0c0-6.53,0-13.06,0-19.59
									C843.8,295.09,840.5,295.09,840.5,297.22L840.5,297.22z"/>
							</g>
						</g>
						<g>
							<g>
								<path class="st3" d="M853.62,299.39c-1.17,3.47-2.75,6.76-4.9,9.73c-2.16,2.99-4.88,5.53-7.74,7.83
									c-0.7,0.56-0.58,1.75,0,2.33c0.69,0.69,1.64,0.56,2.33,0c3.1-2.49,5.93-5.27,8.26-8.5c2.31-3.2,3.97-6.79,5.23-10.52
									C857.48,298.25,854.3,297.38,853.62,299.39L853.62,299.39z"/>
							</g>
						</g>
						<g>
							<g>
								<path class="st3" d="M862.93,308.14c-3.62,5.95-9.66,9.75-16,12.3c-0.83,0.33-1.41,1.1-1.15,2.03
									c0.22,0.78,1.2,1.49,2.03,1.15c7.16-2.88,13.88-7.09,17.97-13.82C866.89,307.99,864.04,306.33,862.93,308.14L862.93,308.14z
									"/>
							</g>
						</g>
					</g>
				</g>
			</g>
			<g>
				<g>
					<g>
						<path class="st4" d="M780.11,554.12c0,6.85-51.31,8.84-56.86,8.84h-384c-5.54,0-56.86-1.99-56.86-8.84l46.83-70.19
							c0-6.85,4.5-12.41,10.03-12.41h384c5.55,0,10.04,5.56,10.04,12.41L780.11,554.12z"/>
						<g>
							<g>
								<polygon class="st5" points="452.28,538.49 353.59,538.49 370.85,496.68 460.12,496.68 								"/>
								<polygon class="st5" points="610.21,538.49 708.91,538.49 691.63,496.68 602.37,496.68 								"/>
								<polygon class="st5" points="719.87,538.49 754.63,538.49 726.19,496.68 699.97,496.68 								"/>
								<polygon class="st5" points="342.62,538.49 307.87,538.49 336.31,496.68 362.52,496.68 								"/>
								<polygon class="st5" points="601.53,538.49 460.96,538.49 468.79,496.68 593.7,496.68 								"/>
							</g>
							<g>
								<rect x="316.44" y="504.31" class="st4" width="429.61" height="6.4"/>
								<rect x="311.79" y="519.99" class="st4" width="438.92" height="6.4"/>
							</g>
						</g>
					</g>
					<g>
						<path class="st5" d="M782.73,570.38c0,5.54-1.15,10.03-6.68,10.03h-489.6c-5.55,0-6.69-4.49-6.69-10.03v-8.6
							c0-5.54,1.14-10.03,6.69-10.03h489.6c5.54,0,6.68,4.49,6.68,10.03V570.38z"/>
						<path class="st6" d="M623.01,566.32c0,2.89-2.34,5.23-5.22,5.23H444.7c-2.89,0-5.23-2.34-5.23-5.23l0,0
							c0-2.89,2.34-5.23,5.23-5.23h173.09C620.68,561.09,623.01,563.43,623.01,566.32L623.01,566.32z"/>
					</g>
				</g>
				<g>
					<path class="st5" d="M738.3,474.46c0,5.54-4.49,10.04-10.04,10.04H334.23c-5.54,0-10.04-4.49-10.04-10.04V217.39
						c0-5.54,4.49-10.04,10.04-10.04h394.03c5.55,0,10.04,4.49,10.04,10.04V474.46z"/>
					<g>
						<g>
							<path class="st7" d="M531.25,218.89c2.27,0,2.27-3.52,0-3.52C528.98,215.37,528.98,218.89,531.25,218.89L531.25,218.89z"/>
						</g>
					</g>
					<g>
						<path class="st7" d="M709.31,458.3c0,4.77-3.86,8.63-8.63,8.63H361.81c-4.76,0-8.63-3.86-8.63-8.63V237.23
							c0-4.77,3.87-8.63,8.63-8.63h338.87c4.76,0,8.63,3.86,8.63,8.63V458.3z"/>
						<g>
							<g>
								<g>
									<line class="st8" x1="479.4" y1="318.2" x2="449.84" y2="347.76"/>
									<line class="st8" x1="479.4" y1="347.77" x2="449.85" y2="318.21"/>
								</g>
								<g>
									<line class="st8" x1="612.65" y1="318.2" x2="583.09" y2="347.76"/>
									<line class="st8" x1="612.65" y1="347.77" x2="583.09" y2="318.21"/>
								</g>
							</g>
							<g>
								<g>
									<path class="st9" d="M599.38,383.43v29.17c0,5.77-4.68,10.45-10.45,10.45h-5.64c-5.77,0-10.45-4.68-10.45-10.45v-29.17"/>
									<g>
										<polygon class="st10" points="588.04,384.96 586.11,418.92 584.18,384.96 										"/>
									</g>
								</g>
								<line class="st11" x1="442.67" y1="383.4" x2="619.82" y2="383.4"/>
							</g>
							<g>
								<g>
									<g>
										<path class="st12" d="M413.68,371.51c2.88,0,5.63-2.53,5.5-5.5c-0.13-2.98-2.42-5.5-5.5-5.5c-2.88,0-5.63,2.53-5.5,5.5
											C408.31,368.99,410.59,371.51,413.68,371.51L413.68,371.51z"/>
									</g>
								</g>
								<g>
									<g>
										<path class="st12" d="M648.82,371.51c2.88,0,5.63-2.53,5.5-5.5c-0.13-2.98-2.42-5.5-5.5-5.5c-2.88,0-5.63,2.53-5.5,5.5
											C643.45,368.99,645.73,371.51,648.82,371.51L648.82,371.51z"/>
									</g>
								</g>
							</g>
						</g>
					</g>
				</g>
			</g>
		</g>
		<g>
			<g>
				<g>
					<path class="st13" d="M674.8,173.12c0,22.43,0,44.85,0,67.28c0,6.31,0,12.62,0,18.94c0,3.54,5.5,3.54,5.5,0
						c0-22.43,0-44.85,0-67.28c0-6.31,0-12.63,0-18.94C680.3,169.58,674.8,169.57,674.8,173.12L674.8,173.12z"/>
				</g>
			</g>
			<g>
				<g>
					<path class="st13" d="M677.55,286.97c2.16,0,4.22-1.9,4.13-4.13c-0.1-2.23-1.81-4.13-4.13-4.13c-2.16,0-4.22,1.9-4.13,4.13
						C673.53,285.08,675.24,286.97,677.55,286.97L677.55,286.97z"/>
				</g>
			</g>
		</g>
	</g>
</g>
</svg>
