<svg xmlns="http://www.w3.org/2000/svg" xmlns:xlink="http://www.w3.org/1999/xlink" viewBox="0 0 101.02 75.18"><defs><style>.a{fill:none;clip-rule:evenodd;}.b{fill:#992328;}.b,.d,.e,.g,.h,.j,.k,.m{fill-rule:evenodd;}.c{clip-path:url(#a);}.d{fill:#4a0b20;}.e{fill:#95bd4d;}.f{clip-path:url(#b);}.g{fill:#789b4a;}.h{fill:#57a7b1;}.i{clip-path:url(#c);}.j{fill:#377685;}.k{fill:#dd9e31;}.l{clip-path:url(#d);}.m{fill:#d17c2f;}.n{clip-path:url(#e);}</style><clipPath id="a"><path class="a" d="M86.81,11a1.3,1.3,0,0,0,.46,1.08,4.08,4.08,0,0,0,1.15.66c.45.18,1,.35,1.48.52a6.78,6.78,0,0,1,1.48.65A3.8,3.8,0,0,1,92.53,15,3.35,3.35,0,0,1,93,16.88a3.7,3.7,0,0,1-.39,1.7,4.15,4.15,0,0,1-1,1.33,4.49,4.49,0,0,1-1.47.86,4.91,4.91,0,0,1-1.74.31,5.13,5.13,0,0,1-2.63-.57,3.5,3.5,0,0,1-1.35-1.32,2.71,2.71,0,0,1-.32-1.52,1.78,1.78,0,0,1,.44-1.12,1.34,1.34,0,0,1,1-.52,1.3,1.3,0,0,1,1,.39,1.34,1.34,0,0,1-1,2.29,1.5,1.5,0,0,1-.59-.13,2.53,2.53,0,0,0,.83.94,2.84,2.84,0,0,0,1.67.4,3.42,3.42,0,0,0,1.21-.19,2.85,2.85,0,0,0,.86-.49,2.14,2.14,0,0,0,.53-.65,1.6,1.6,0,0,0,.18-.72,1.26,1.26,0,0,0-.45-1,4.12,4.12,0,0,0-1.12-.64q-.68-.27-1.44-.54a6.86,6.86,0,0,1-1.44-.7,3.81,3.81,0,0,1-1.12-1.14A3.33,3.33,0,0,1,84.24,12a3.57,3.57,0,0,1,.29-1.47,3.46,3.46,0,0,1,.85-1.19,4.15,4.15,0,0,1,1.37-.79,5.17,5.17,0,0,1,1.81-.3,3.59,3.59,0,0,1,2.72.92,3.18,3.18,0,0,1,.86,2.25,1.31,1.31,0,0,1-.39.94,1.24,1.24,0,0,1-1,.4,1.25,1.25,0,0,1-1-.4,1.31,1.31,0,0,1-.39-.94,1.34,1.34,0,0,1,.39-1,1.28,1.28,0,0,1,1-.39,1.13,1.13,0,0,1,.31.05,1.79,1.79,0,0,0-.75-.67,2.7,2.7,0,0,0-1.23-.23,2.49,2.49,0,0,0-1.73.54A1.7,1.7,0,0,0,86.81,11ZM15.53,59.6a9.72,9.72,0,0,1-5.1-1.22,8,8,0,0,1-4-7,9.05,9.05,0,0,1,.83-3.94,7.76,7.76,0,0,1,2.56-3A7,7,0,0,1,14,43.17a5.47,5.47,0,0,1,2.8.67,5.35,5.35,0,0,1,1.78,1.69,4.7,4.7,0,0,1,.75,2.2A4.83,4.83,0,0,1,19,49.92a3.77,3.77,0,0,1-1.33,1.69,4,4,0,0,1-2.39.67,2.67,2.67,0,0,0,.42-1,4.75,4.75,0,0,0,.13-1.73,3.11,3.11,0,0,0-.69-1.6,2.56,2.56,0,0,0-2.06-.71,3.41,3.41,0,0,0-2.31.79,4.44,4.44,0,0,0-1.35,1.95,6.55,6.55,0,0,0-.32,2.54A5.92,5.92,0,0,0,9.78,55,5.44,5.44,0,0,0,11.59,57a5.17,5.17,0,0,0,3,.8,5.21,5.21,0,0,0,3.15-1,8.13,8.13,0,0,0,2.17-2.32,10.1,10.1,0,0,0,1.26-2.9,11,11,0,0,0,.41-2.73V29.46c.87.24,3.2.74,4.71,1.06V46.71a19.32,19.32,0,0,1-.67,5.18,11.49,11.49,0,0,1-2,4.09,9.18,9.18,0,0,1-3.34,2.66,11,11,0,0,1-4.72,1ZM33.62,9.91A12,12,0,0,0,33.3,7.2a7.33,7.33,0,0,0-1.17-2.54,7.41,7.41,0,0,0-2.25-2,10.38,10.38,0,0,0-3.62-1.22V18.57a7.19,7.19,0,0,0,2.36-.45A7,7,0,0,0,31,16.66,8.26,8.26,0,0,0,32.86,14a9.68,9.68,0,0,0,.76-4.06ZM21.55,24.28V4.87l0,0a25.08,25.08,0,0,1,.24-3.5A14,14,0,0,0,18,2.59a12.09,12.09,0,0,0-5.77,6.14,11.82,11.82,0,0,0-.92,4.76,11,11,0,0,0,.29,2.62,10.22,10.22,0,0,0,.73,2.05,6.43,6.43,0,0,0,1,1.53,8.32,8.32,0,0,0,1.2,1.07,7.52,7.52,0,0,0,3.25,1.38,1.57,1.57,0,0,1-.71,1.27,3.69,3.69,0,0,1-1.81.65A6,6,0,0,1,13,23.81a5.68,5.68,0,0,1-2.34-1.42,8.13,8.13,0,0,1-1.81-2.87,12.79,12.79,0,0,1-.71-4.61,14.59,14.59,0,0,1,1.22-6.1,14.08,14.08,0,0,1,3.19-4.47A14.33,14.33,0,0,1,17,1.49,19.92,19.92,0,0,1,21.5.27,15.16,15.16,0,0,1,26.76.19a18.28,18.28,0,0,1,5,1.08,12.21,12.21,0,0,1,3.7,2.17,8.22,8.22,0,0,1,2.12,2.93,9.11,9.11,0,0,1,.67,3.46,9.67,9.67,0,0,1-1,4.47,8.64,8.64,0,0,1-2.61,3.07,11.56,11.56,0,0,1-3.82,1.77,18.22,18.22,0,0,1-4.57.57V25l-4.71-.73Zm57.86-4.15a.85.85,0,0,0,.67-.43,4.08,4.08,0,0,0,.54-1.18A11.19,11.19,0,0,0,81,16.78a14.42,14.42,0,0,0,.14-2.14A14.29,14.29,0,0,0,81,12.51a11.59,11.59,0,0,0-.37-1.75,4.21,4.21,0,0,0-.54-1.18.74.74,0,0,0-1.34,0,4,4,0,0,0-.54,1.18,11.59,11.59,0,0,0-.37,1.75,15.27,15.27,0,0,0,0,4.27,11.19,11.19,0,0,0,.37,1.74,3.83,3.83,0,0,0,.54,1.18.85.85,0,0,0,.67.43Zm0-11.92a3.54,3.54,0,0,0-1.84.5,4.68,4.68,0,0,0-1.5,1.38,7.2,7.2,0,0,0-1,2,8.19,8.19,0,0,0-.37,2.51,8.15,8.15,0,0,0,.37,2.51,7.26,7.26,0,0,0,1,2.05,4.91,4.91,0,0,0,1.5,1.38,3.63,3.63,0,0,0,1.84.5,3.57,3.57,0,0,0,1.83-.5,5,5,0,0,0,1.5-1.38,6.77,6.77,0,0,0,1-2.05,8.93,8.93,0,0,0,0-5,6.71,6.71,0,0,0-1-2,4.78,4.78,0,0,0-1.5-1.38,3.48,3.48,0,0,0-1.83-.5ZM74.87,3.37a.87.87,0,0,0-.56.36,1,1,0,0,0-.19.56v15.3a1,1,0,0,0,.19.58.77.77,0,0,0,.56.34.24.24,0,0,1,.18.26v.05a.23.23,0,0,1-.26.26H70.46c-.17,0-.25-.09-.25-.26v-.05a.24.24,0,0,1,.18-.26.75.75,0,0,0,.55-.34,1,1,0,0,0,.19-.58V4.29a1,1,0,0,0-.19-.56.85.85,0,0,0-.55-.36.22.22,0,0,1-.18-.23V3.08a.22.22,0,0,1,.25-.25h4.33c.17,0,.26.08.26.25v.06a.22.22,0,0,1-.18.23ZM65.59,9.19a1.07,1.07,0,0,0-.8.38,3.22,3.22,0,0,0-.62,1.06v8.21a2.61,2.61,0,0,0,.59.94,1.18,1.18,0,0,0,.83.35,1,1,0,0,0,.72-.43A4,4,0,0,0,67,18.53a9.9,9.9,0,0,0,.47-1.74,12.57,12.57,0,0,0,0-4.24A9.66,9.66,0,0,0,67,10.81a4.38,4.38,0,0,0-.64-1.19,1,1,0,0,0-.72-.43Zm-5.1,11.89h3.68v-.44a3.59,3.59,0,0,0,3.55-.06,5.11,5.11,0,0,0,1.5-1.37,6.53,6.53,0,0,0,1-2,8.93,8.93,0,0,0,0-5,6.87,6.87,0,0,0-1-2.05,5,5,0,0,0-1.5-1.37,3.45,3.45,0,0,0-1.82-.51,3.56,3.56,0,0,0-1.73.44V4.32a1.14,1.14,0,0,1,.19-.58.79.79,0,0,1,.56-.35.23.23,0,0,0,.18-.25V3.08c0-.17-.09-.25-.26-.25H60.49c-.17,0-.26.08-.26.25v.06a.24.24,0,0,0,.21.25.77.77,0,0,1,.55.35,1.07,1.07,0,0,1,.2.58V19.61a1,1,0,0,1-.2.57.85.85,0,0,1-.55.36.23.23,0,0,0-.21.23v.05a.23.23,0,0,0,.26.26Zm-5-11.89a1,1,0,0,0-.76.39,3.88,3.88,0,0,0-.61,1.1,9.49,9.49,0,0,0-.42,1.62,12.48,12.48,0,0,0-.19,2h3.63c0-.58,0-1.18-.08-1.78a11,11,0,0,0-.26-1.65,3.93,3.93,0,0,0-.5-1.22,1,1,0,0,0-.81-.47Zm.33,11.89a4.83,4.83,0,0,1-2.19-.5,5.14,5.14,0,0,1-1.67-1.37,6.24,6.24,0,0,1-1.07-2,8.19,8.19,0,0,1-.37-2.51,8.51,8.51,0,0,1,.36-2.51,6.87,6.87,0,0,1,1-2.05,4.74,4.74,0,0,1,1.56-1.37,4.13,4.13,0,0,1,2.05-.51,3.93,3.93,0,0,1,2,.47,4.34,4.34,0,0,1,1.34,1.17,5.51,5.51,0,0,1,.81,1.56A10.88,10.88,0,0,1,60,13.06a9.32,9.32,0,0,1,.12,1.39,3.71,3.71,0,0,1,0,.81H53.5a6.08,6.08,0,0,0,.92,3.18,2.51,2.51,0,0,0,2.17,1.17,3,3,0,0,0,1-.15,2.09,2.09,0,0,0,.63-.36,1.49,1.49,0,0,0,.41-.54l-.23,0a1.4,1.4,0,0,1-.5-.12,1.23,1.23,0,0,1-.49-.4,1.27,1.27,0,0,1-.22-.8,1.24,1.24,0,0,1,.4-.95,1.29,1.29,0,0,1,.94-.39,1.57,1.57,0,0,1,.89.32,1.23,1.23,0,0,1,.45,1.07,3.64,3.64,0,0,1-.25,1.29,3.55,3.55,0,0,1-.76,1.23,4,4,0,0,1-1.28.93,4.27,4.27,0,0,1-1.81.36ZM50.22,8.23a.23.23,0,0,1,.26.26v0a.23.23,0,0,1-.21.23.93.93,0,0,0-.55.36,1,1,0,0,0-.19.57v9.91a1,1,0,0,0,.19.57.85.85,0,0,0,.55.36.23.23,0,0,1,.21.23v.05a.23.23,0,0,1-.26.26H46.54V19.69a4,4,0,0,1-1,.95,2.85,2.85,0,0,1-1.63.44,3.69,3.69,0,0,1-1.76-.36,2.83,2.83,0,0,1-1-.91,3.15,3.15,0,0,1-.47-1.21,7,7,0,0,1-.12-1.25V9.7a1.06,1.06,0,0,0-.18-.57.87.87,0,0,0-.54-.36.23.23,0,0,1-.21-.23v0a.23.23,0,0,1,.26-.26h4.35a.23.23,0,0,1,.26.26v0a.23.23,0,0,1-.21.23.93.93,0,0,0-.55.36,1,1,0,0,0-.19.57v7.65a3.46,3.46,0,0,0,.31,1.57,1.06,1.06,0,0,0,1,.62A1.4,1.4,0,0,0,46,19.07a2.47,2.47,0,0,0,.52-1V9.7a1.06,1.06,0,0,0-.18-.57.87.87,0,0,0-.54-.36.23.23,0,0,1-.21-.23v0a.23.23,0,0,1,.26-.26Z"/></clipPath><clipPath id="b"><path class="a" d="M92.36,34.17a1.18,1.18,0,0,0-.78.51,1.42,1.42,0,0,0-.27.8v14.6c0,.84.43.65,1.09.65a1.45,1.45,0,0,0,.8-.27,4.55,4.55,0,0,0,.61-1.67.31.31,0,0,1,.32-.25h.08a.32.32,0,0,1,.36.36l0,4.2a.32.32,0,0,1-.36.36h-.08a.3.3,0,0,1-.32-.25,1.22,1.22,0,0,0-.51-.78,1.37,1.37,0,0,0-.8-.28l-6.39,0a.32.32,0,0,1-.36-.36v-.07a.34.34,0,0,1,.26-.37,1.1,1.1,0,0,0,.78-.49,1.48,1.48,0,0,0,.27-.81V35.48a1.42,1.42,0,0,0-.27-.8,1.23,1.23,0,0,0-.78-.51.32.32,0,0,1-.26-.32v-.08a.32.32,0,0,1,.36-.36h6.1a.32.32,0,0,1,.36.36v.08a.31.31,0,0,1-.25.32Zm-12.75,18a6.57,6.57,0,0,1-3.09-.71,7.29,7.29,0,0,1-2.36-1.92,8.75,8.75,0,0,1-1.5-2.86,11.66,11.66,0,0,1-.53-3.54,11.93,11.93,0,0,1,.51-3.54,9.45,9.45,0,0,1,1.42-2.88,6.54,6.54,0,0,1,2.19-1.94,5.8,5.8,0,0,1,2.88-.71,5.68,5.68,0,0,1,2.82.65,6.14,6.14,0,0,1,1.88,1.65A7.83,7.83,0,0,1,85,38.58a15.2,15.2,0,0,1,.58,2.3,12.38,12.38,0,0,1,.18,2A5.36,5.36,0,0,1,85.66,44H76.38a8.4,8.4,0,0,0,1.29,4.48,3.54,3.54,0,0,0,3.06,1.65,4.11,4.11,0,0,0,1.43-.21,2.94,2.94,0,0,0,.89-.51,1.91,1.91,0,0,0,.58-.76l-.32,0a2,2,0,0,1-.71-.18,1.82,1.82,0,0,1-.69-.57,1.76,1.76,0,0,1-.31-1.12,1.8,1.8,0,0,1,.56-1.34,1.84,1.84,0,0,1,1.33-.55,2.1,2.1,0,0,1,1.25.46,1.72,1.72,0,0,1,.63,1.5A5.3,5.3,0,0,1,85,48.63,5.39,5.39,0,0,1,84,50.37a5.68,5.68,0,0,1-1.81,1.3,6,6,0,0,1-2.54.51Zm-.48-16.76a1.44,1.44,0,0,0-1.07.56,5.09,5.09,0,0,0-.85,1.55,13.87,13.87,0,0,0-.6,2.28,20.15,20.15,0,0,0-.27,2.83h5.12c0-.82,0-1.66-.11-2.5A15,15,0,0,0,81,37.82a5.12,5.12,0,0,0-.7-1.73A1.34,1.34,0,0,0,79.13,35.42Z"/></clipPath><clipPath id="c"><path class="a" d="M52,40.86a1.35,1.35,0,0,0-1,.42,3.73,3.73,0,0,0-.76,1.12A7.53,7.53,0,0,0,49.77,44a9.32,9.32,0,0,0-.2,2,9.23,9.23,0,0,0,.2,2,7.45,7.45,0,0,0,.52,1.65,3.49,3.49,0,0,0,.76,1.1,1.37,1.37,0,0,0,1,.4,6.81,6.81,0,0,0,.69,0,2,2,0,0,0,.89-.31,3.1,3.1,0,0,0,.87-.84,4.45,4.45,0,0,0,.63-1.67V43.72a4.45,4.45,0,0,0-.63-1.67,3.1,3.1,0,0,0-.87-.84,2.07,2.07,0,0,0-.89-.31,6.81,6.81,0,0,0-.69,0Zm21.13-6.78a.32.32,0,0,1,.36.36v.07a.32.32,0,0,1-.29.33,1.11,1.11,0,0,0-.74.47,4.11,4.11,0,0,0-.42.84l-5,16H65.55L60.29,36a2.5,2.5,0,0,0-.4-.8,1,1,0,0,0-.84-.4.37.37,0,0,1-.23-.11.28.28,0,0,1-.13-.22v-.07a.32.32,0,0,1,.36-.36h5.81a.32.32,0,0,1,.36.36v.07a.33.33,0,0,1-.29.33.65.65,0,0,0-.45.29.64.64,0,0,0-.06.51l3.27,9.65,2.83-9.14a2.07,2.07,0,0,0,.13-.8c0-.27-.19-.44-.53-.51a.33.33,0,0,1-.29-.33v-.07a.32.32,0,0,1,.36-.36ZM52,52.18a7.23,7.23,0,0,1-2.6-.47,6.44,6.44,0,0,1-2.1-1.31,6.7,6.7,0,0,1-1.42-1.95,5.48,5.48,0,0,1-.52-2.38,5.6,5.6,0,0,1,.52-2.4,6.53,6.53,0,0,1,1.42-2,6.61,6.61,0,0,1,2.1-1.31,7.23,7.23,0,0,1,2.6-.47,7,7,0,0,1,3.08.72V37.77a3.9,3.9,0,0,0-.4-1.41,3.26,3.26,0,0,0-.85-1,2.47,2.47,0,0,0-1.61-.46,4.36,4.36,0,0,0-1.64.26,2.09,2.09,0,0,0-.87.58,1.71,1.71,0,0,1,.93.67,1.93,1.93,0,0,1-.2,2.43,1.9,1.9,0,0,1-2.69,0,1.86,1.86,0,0,1-.54-1.32s0-.22,0-.59a2.37,2.37,0,0,1,.55-1.17A4.34,4.34,0,0,1,49.4,34.6a7.87,7.87,0,0,1,3.25-.52,11.74,11.74,0,0,1,2.25.22,6,6,0,0,1,2.14.83,4.84,4.84,0,0,1,1.61,1.69,5.39,5.39,0,0,1,.64,2.81V50.11a1.45,1.45,0,0,0,.25.8,1.14,1.14,0,0,0,.77.51.33.33,0,0,1,.29.33v.07a.33.33,0,0,1-.37.36H55.08v-.72A7,7,0,0,1,52,52.18Z"/></clipPath><clipPath id="d"><path class="a" d="M42.5,38.18A1.82,1.82,0,0,1,43,36.84a1.8,1.8,0,0,1,1.34-.55,1.28,1.28,0,0,0-.5-.51,2.26,2.26,0,0,0-1.09-.21,3.33,3.33,0,0,0-2.29.76,5,5,0,0,0-1.32,1.81,8.41,8.41,0,0,0-.62,2.14,12.31,12.31,0,0,0-.16,1.78v8a1.4,1.4,0,0,0,.27.8,1.18,1.18,0,0,0,.78.51.33.33,0,0,1,.29.33v.07a.32.32,0,0,1-.36.36H33.25a.32.32,0,0,1-.37-.36v-.07a.33.33,0,0,1,.29-.33,1.1,1.1,0,0,0,.76-.51,1.46,1.46,0,0,0,.26-.8v-14a1.46,1.46,0,0,0-.26-.8,1.1,1.1,0,0,0-.76-.51.33.33,0,0,1-.29-.33v-.07a.32.32,0,0,1,.37-.36H38.4V35.6l.23-.2a5.06,5.06,0,0,1,.8-.52,7.78,7.78,0,0,1,1.25-.55,4.84,4.84,0,0,1,1.6-.25,5,5,0,0,1,1.89.32,3.4,3.4,0,0,1,1.23.88,3.21,3.21,0,0,1,.67,1.23,5.06,5.06,0,0,1,.2,1.38,2.33,2.33,0,0,1-.54,1.48,1.66,1.66,0,0,1-1.35.69,1.84,1.84,0,0,1-1.88-1.88Z"/></clipPath><clipPath id="e"><path class="a" d="M46.4,23.42a1.6,1.6,0,0,1,1.25.64,3.28,3.28,0,0,1,.69,1.56,5.09,5.09,0,0,1-.11,2,4.24,4.24,0,0,1-1.2,2,7.3,7.3,0,0,1-2.57,1.56,11.89,11.89,0,0,1-4.2.64,34.25,34.25,0,0,1-4.55-.29,34.79,34.79,0,0,1-4-.8v2.68l-.13,30.21A17.34,17.34,0,0,1,31,68.3,10.55,10.55,0,0,1,29.16,72a8.22,8.22,0,0,1-3,2.37,9.69,9.69,0,0,1-4.22.86,8.71,8.71,0,0,1-4.55-1.09,7.29,7.29,0,0,1-2.69-2.72,7.43,7.43,0,0,1-.9-3.52,8,8,0,0,1,.74-3.52,6.82,6.82,0,0,1,2.29-2.72,6.23,6.23,0,0,1,3.7-1.09,5,5,0,0,1,2.52.6,4.54,4.54,0,0,1,1.6,1.5,4.77,4.77,0,0,1,.67,2,3.88,3.88,0,0,1-.28,2,3.48,3.48,0,0,1-1.21,1.51,3.59,3.59,0,0,1-2.14.6,2.48,2.48,0,0,0,.39-.93,4.17,4.17,0,0,0,.1-1.54,2.67,2.67,0,0,0-.62-1.43,2.27,2.27,0,0,0-1.83-.64,3.11,3.11,0,0,0-2.07.71,4,4,0,0,0-1.2,1.74,6.19,6.19,0,0,0-.29,2.27,5.2,5.2,0,0,0,.66,2.27,5.09,5.09,0,0,0,1.63,1.74,4.65,4.65,0,0,0,2.65.7,4.69,4.69,0,0,0,2.82-.85,6.92,6.92,0,0,0,1.93-2.07A9.3,9.3,0,0,0,27,68a10.27,10.27,0,0,0,.37-2.43c.05-12,0-24,.36-36A15.66,15.66,0,0,1,25.88,29l-3.3-1.18c-1-.36-2.07-.66-3-.89a13.15,13.15,0,0,0-2.88-.34,12.24,12.24,0,0,0-3.34.45,9.1,9.1,0,0,0-2.79,1.31,6.49,6.49,0,0,0-1.91,2.1,5.81,5.81,0,0,0-.71,2.89,3.77,3.77,0,0,0,.68,2.27A4.14,4.14,0,0,0,10.24,37a4.63,4.63,0,0,0,2.16.4,4.18,4.18,0,0,0,2.16-.69,4.9,4.9,0,0,0,1.67-1.86,6.51,6.51,0,0,0,.67-3.13,3.33,3.33,0,0,0-.18-1.23,2.91,2.91,0,0,0-.36-.69,1.28,1.28,0,0,0-.55-.36q0-.26.66-.24a2.86,2.86,0,0,1,1.41.51A4.74,4.74,0,0,1,20,33.91a6.39,6.39,0,0,1-1,3.68,6.07,6.07,0,0,1-2.45,2.12,7.17,7.17,0,0,1-6.38-.22,6.75,6.75,0,0,1-2.45-2.28,6.45,6.45,0,0,1-1-3.66,7.77,7.77,0,0,1,1.16-4.47,8.12,8.12,0,0,1,3-2.66,12.76,12.76,0,0,1,4-1.29,29.24,29.24,0,0,1,4.31-.33,23.77,23.77,0,0,1,4.15.42c1.56.28,3.19.58,4.89.91s3.43.63,5.19.9a32.06,32.06,0,0,0,5.06.42,12.23,12.23,0,0,0,4.33-.62,7.42,7.42,0,0,0,2.38-1.37A4.08,4.08,0,0,0,46.4,23.42Z"/></clipPath></defs><title>logo-pueblo-travel</title><path class="b" d="M86.81,11a1.3,1.3,0,0,0,.46,1.08,4.08,4.08,0,0,0,1.15.66c.45.18,1,.35,1.48.52a6.78,6.78,0,0,1,1.48.65A3.8,3.8,0,0,1,92.53,15,3.35,3.35,0,0,1,93,16.88a3.7,3.7,0,0,1-.39,1.7,4.15,4.15,0,0,1-1,1.33,4.49,4.49,0,0,1-1.47.86,4.91,4.91,0,0,1-1.74.31,5.13,5.13,0,0,1-2.63-.57,3.5,3.5,0,0,1-1.35-1.32,2.71,2.71,0,0,1-.32-1.52,1.78,1.78,0,0,1,.44-1.12,1.34,1.34,0,0,1,1-.52,1.3,1.3,0,0,1,1,.39,1.34,1.34,0,0,1-1,2.29,1.5,1.5,0,0,1-.59-.13,2.53,2.53,0,0,0,.83.94,2.84,2.84,0,0,0,1.67.4,3.42,3.42,0,0,0,1.21-.19,2.85,2.85,0,0,0,.86-.49,2.14,2.14,0,0,0,.53-.65,1.6,1.6,0,0,0,.18-.72,1.26,1.26,0,0,0-.45-1,4.12,4.12,0,0,0-1.12-.64q-.68-.27-1.44-.54a6.86,6.86,0,0,1-1.44-.7,3.81,3.81,0,0,1-1.12-1.14A3.33,3.33,0,0,1,84.24,12a3.57,3.57,0,0,1,.29-1.47,3.46,3.46,0,0,1,.85-1.19,4.15,4.15,0,0,1,1.37-.79,5.17,5.17,0,0,1,1.81-.3,3.59,3.59,0,0,1,2.72.92,3.18,3.18,0,0,1,.86,2.25,1.31,1.31,0,0,1-.39.94,1.24,1.24,0,0,1-1,.4,1.25,1.25,0,0,1-1-.4,1.31,1.31,0,0,1-.39-.94,1.34,1.34,0,0,1,.39-1,1.28,1.28,0,0,1,1-.39,1.13,1.13,0,0,1,.31.05,1.79,1.79,0,0,0-.75-.67,2.7,2.7,0,0,0-1.23-.23,2.49,2.49,0,0,0-1.73.54A1.7,1.7,0,0,0,86.81,11ZM15.53,59.6a9.72,9.72,0,0,1-5.1-1.22,8,8,0,0,1-4-7,9.05,9.05,0,0,1,.83-3.94,7.76,7.76,0,0,1,2.56-3A7,7,0,0,1,14,43.17a5.47,5.47,0,0,1,2.8.67,5.35,5.35,0,0,1,1.78,1.69,4.7,4.7,0,0,1,.75,2.2A4.83,4.83,0,0,1,19,49.92a3.77,3.77,0,0,1-1.33,1.69,4,4,0,0,1-2.39.67,2.67,2.67,0,0,0,.42-1,4.75,4.75,0,0,0,.13-1.73,3.11,3.11,0,0,0-.69-1.6,2.56,2.56,0,0,0-2.06-.71,3.41,3.41,0,0,0-2.31.79,4.44,4.44,0,0,0-1.35,1.95,6.55,6.55,0,0,0-.32,2.54A5.92,5.92,0,0,0,9.78,55,5.44,5.44,0,0,0,11.59,57a5.17,5.17,0,0,0,3,.8,5.21,5.21,0,0,0,3.15-1,8.13,8.13,0,0,0,2.17-2.32,10.1,10.1,0,0,0,1.26-2.9,11,11,0,0,0,.41-2.73V29.46c.87.24,3.2.74,4.71,1.06V46.71a19.32,19.32,0,0,1-.67,5.18,11.49,11.49,0,0,1-2,4.09,9.18,9.18,0,0,1-3.34,2.66,11,11,0,0,1-4.72,1ZM33.62,9.91A12,12,0,0,0,33.3,7.2a7.33,7.33,0,0,0-1.17-2.54,7.41,7.41,0,0,0-2.25-2,10.38,10.38,0,0,0-3.62-1.22V18.57a7.19,7.19,0,0,0,2.36-.45A7,7,0,0,0,31,16.66,8.26,8.26,0,0,0,32.86,14a9.68,9.68,0,0,0,.76-4.06ZM21.55,24.28V4.87l0,0a25.08,25.08,0,0,1,.24-3.5A14,14,0,0,0,18,2.59a12.09,12.09,0,0,0-5.77,6.14,11.82,11.82,0,0,0-.92,4.76,11,11,0,0,0,.29,2.62,10.22,10.22,0,0,0,.73,2.05,6.43,6.43,0,0,0,1,1.53,8.32,8.32,0,0,0,1.2,1.07,7.52,7.52,0,0,0,3.25,1.38,1.57,1.57,0,0,1-.71,1.27,3.69,3.69,0,0,1-1.81.65A6,6,0,0,1,13,23.81a5.68,5.68,0,0,1-2.34-1.42,8.13,8.13,0,0,1-1.81-2.87,12.79,12.79,0,0,1-.71-4.61,14.59,14.59,0,0,1,1.22-6.1,14.08,14.08,0,0,1,3.19-4.47A14.33,14.33,0,0,1,17,1.49,19.92,19.92,0,0,1,21.5.27,15.16,15.16,0,0,1,26.76.19a18.28,18.28,0,0,1,5,1.08,12.21,12.21,0,0,1,3.7,2.17,8.22,8.22,0,0,1,2.12,2.93,9.11,9.11,0,0,1,.67,3.46,9.67,9.67,0,0,1-1,4.47,8.64,8.64,0,0,1-2.61,3.07,11.56,11.56,0,0,1-3.82,1.77,18.22,18.22,0,0,1-4.57.57V25l-4.71-.73Zm57.86-4.15a.85.85,0,0,0,.67-.43,4.08,4.08,0,0,0,.54-1.18A11.19,11.19,0,0,0,81,16.78a14.42,14.42,0,0,0,.14-2.14A14.29,14.29,0,0,0,81,12.51a11.59,11.59,0,0,0-.37-1.75,4.21,4.21,0,0,0-.54-1.18.74.74,0,0,0-1.34,0,4,4,0,0,0-.54,1.18,11.59,11.59,0,0,0-.37,1.75,15.27,15.27,0,0,0,0,4.27,11.19,11.19,0,0,0,.37,1.74,3.83,3.83,0,0,0,.54,1.18.85.85,0,0,0,.67.43Zm0-11.92a3.54,3.54,0,0,0-1.84.5,4.68,4.68,0,0,0-1.5,1.38,7.2,7.2,0,0,0-1,2,8.19,8.19,0,0,0-.37,2.51,8.15,8.15,0,0,0,.37,2.51,7.26,7.26,0,0,0,1,2.05,4.91,4.91,0,0,0,1.5,1.38,3.63,3.63,0,0,0,1.84.5,3.57,3.57,0,0,0,1.83-.5,5,5,0,0,0,1.5-1.38,6.77,6.77,0,0,0,1-2.05,8.93,8.93,0,0,0,0-5,6.71,6.71,0,0,0-1-2,4.78,4.78,0,0,0-1.5-1.38,3.48,3.48,0,0,0-1.83-.5ZM74.87,3.37a.87.87,0,0,0-.56.36,1,1,0,0,0-.19.56v15.3a1,1,0,0,0,.19.58.77.77,0,0,0,.56.34.24.24,0,0,1,.18.26v.05a.23.23,0,0,1-.26.26H70.46c-.17,0-.25-.09-.25-.26v-.05a.24.24,0,0,1,.18-.26.75.75,0,0,0,.55-.34,1,1,0,0,0,.19-.58V4.29a1,1,0,0,0-.19-.56.85.85,0,0,0-.55-.36.22.22,0,0,1-.18-.23V3.08a.22.22,0,0,1,.25-.25h4.33c.17,0,.26.08.26.25v.06a.22.22,0,0,1-.18.23ZM65.59,9.19a1.07,1.07,0,0,0-.8.38,3.22,3.22,0,0,0-.62,1.06v8.21a2.61,2.61,0,0,0,.59.94,1.18,1.18,0,0,0,.83.35,1,1,0,0,0,.72-.43A4,4,0,0,0,67,18.53a9.9,9.9,0,0,0,.47-1.74,12.57,12.57,0,0,0,0-4.24A9.66,9.66,0,0,0,67,10.81a4.38,4.38,0,0,0-.64-1.19,1,1,0,0,0-.72-.43Zm-5.1,11.89h3.68v-.44a3.59,3.59,0,0,0,3.55-.06,5.11,5.11,0,0,0,1.5-1.37,6.53,6.53,0,0,0,1-2,8.93,8.93,0,0,0,0-5,6.87,6.87,0,0,0-1-2.05,5,5,0,0,0-1.5-1.37,3.45,3.45,0,0,0-1.82-.51,3.56,3.56,0,0,0-1.73.44V4.32a1.14,1.14,0,0,1,.19-.58.79.79,0,0,1,.56-.35.23.23,0,0,0,.18-.25V3.08c0-.17-.09-.25-.26-.25H60.49c-.17,0-.26.08-.26.25v.06a.24.24,0,0,0,.21.25.77.77,0,0,1,.55.35,1.07,1.07,0,0,1,.2.58V19.61a1,1,0,0,1-.2.57.85.85,0,0,1-.55.36.23.23,0,0,0-.21.23v.05a.23.23,0,0,0,.26.26Zm-5-11.89a1,1,0,0,0-.76.39,3.88,3.88,0,0,0-.61,1.1,9.49,9.49,0,0,0-.42,1.62,12.48,12.48,0,0,0-.19,2h3.63c0-.58,0-1.18-.08-1.78a11,11,0,0,0-.26-1.65,3.93,3.93,0,0,0-.5-1.22,1,1,0,0,0-.81-.47Zm.33,11.89a4.83,4.83,0,0,1-2.19-.5,5.14,5.14,0,0,1-1.67-1.37,6.24,6.24,0,0,1-1.07-2,8.19,8.19,0,0,1-.37-2.51,8.51,8.51,0,0,1,.36-2.51,6.87,6.87,0,0,1,1-2.05,4.74,4.74,0,0,1,1.56-1.37,4.13,4.13,0,0,1,2.05-.51,3.93,3.93,0,0,1,2,.47,4.34,4.34,0,0,1,1.34,1.17,5.51,5.51,0,0,1,.81,1.56A10.88,10.88,0,0,1,60,13.06a9.32,9.32,0,0,1,.12,1.39,3.71,3.71,0,0,1,0,.81H53.5a6.08,6.08,0,0,0,.92,3.18,2.51,2.51,0,0,0,2.17,1.17,3,3,0,0,0,1-.15,2.09,2.09,0,0,0,.63-.36,1.49,1.49,0,0,0,.41-.54l-.23,0a1.4,1.4,0,0,1-.5-.12,1.23,1.23,0,0,1-.49-.4,1.27,1.27,0,0,1-.22-.8,1.24,1.24,0,0,1,.4-.95,1.29,1.29,0,0,1,.94-.39,1.57,1.57,0,0,1,.89.32,1.23,1.23,0,0,1,.45,1.07,3.64,3.64,0,0,1-.25,1.29,3.55,3.55,0,0,1-.76,1.23,4,4,0,0,1-1.28.93,4.27,4.27,0,0,1-1.81.36ZM50.22,8.23a.23.23,0,0,1,.26.26v0a.23.23,0,0,1-.21.23.93.93,0,0,0-.55.36,1,1,0,0,0-.19.57v9.91a1,1,0,0,0,.19.57.85.85,0,0,0,.55.36.23.23,0,0,1,.21.23v.05a.23.23,0,0,1-.26.26H46.54V19.69a4,4,0,0,1-1,.95,2.85,2.85,0,0,1-1.63.44,3.69,3.69,0,0,1-1.76-.36,2.83,2.83,0,0,1-1-.91,3.15,3.15,0,0,1-.47-1.21,7,7,0,0,1-.12-1.25V9.7a1.06,1.06,0,0,0-.18-.57.87.87,0,0,0-.54-.36.23.23,0,0,1-.21-.23v0a.23.23,0,0,1,.26-.26h4.35a.23.23,0,0,1,.26.26v0a.23.23,0,0,1-.21.23.93.93,0,0,0-.55.36,1,1,0,0,0-.19.57v7.65a3.46,3.46,0,0,0,.31,1.57,1.06,1.06,0,0,0,1,.62A1.4,1.4,0,0,0,46,19.07a2.47,2.47,0,0,0,.52-1V9.7a1.06,1.06,0,0,0-.18-.57.87.87,0,0,0-.54-.36.23.23,0,0,1-.21-.23v0a.23.23,0,0,1,.26-.26Z"/><g class="c"><path class="d" d="M16.47,14.91H31.58a6.37,6.37,0,0,1,6.35,6.36V54.58a6.54,6.54,0,0,1-6.35,6.35L10.79,62.35c-3.49.24-6.92-2.9-6.35-6.35l5.68-34.73c.57-3.45,2.86-6.36,6.35-6.36Zm63.1,0h15.1A6.37,6.37,0,0,1,101,21.27V54.58a6.37,6.37,0,0,1-6.35,6.35H79.57a6.37,6.37,0,0,1-6.36-6.35V21.27a6.38,6.38,0,0,1,6.36-6.36ZM48,14.91h15.1a6.37,6.37,0,0,1,6.35,6.36V54.58a6.37,6.37,0,0,1-6.35,6.35H48a6.37,6.37,0,0,1-6.35-6.35V21.27A6.37,6.37,0,0,1,48,14.91Z"/></g><path class="e" d="M92.36,34.17a1.18,1.18,0,0,0-.78.51,1.42,1.42,0,0,0-.27.8v14.6c0,.84.43.65,1.09.65a1.45,1.45,0,0,0,.8-.27,4.55,4.55,0,0,0,.61-1.67.31.31,0,0,1,.32-.25h.08a.32.32,0,0,1,.36.36l0,4.2a.32.32,0,0,1-.36.36h-.08a.3.3,0,0,1-.32-.25,1.22,1.22,0,0,0-.51-.78,1.37,1.37,0,0,0-.8-.28l-6.39,0a.32.32,0,0,1-.36-.36v-.07a.34.34,0,0,1,.26-.37,1.1,1.1,0,0,0,.78-.49,1.48,1.48,0,0,0,.27-.81V35.48a1.42,1.42,0,0,0-.27-.8,1.23,1.23,0,0,0-.78-.51.32.32,0,0,1-.26-.32v-.08a.32.32,0,0,1,.36-.36h6.1a.32.32,0,0,1,.36.36v.08a.31.31,0,0,1-.25.32Zm-12.75,18a6.57,6.57,0,0,1-3.09-.71,7.29,7.29,0,0,1-2.36-1.92,8.75,8.75,0,0,1-1.5-2.86,11.66,11.66,0,0,1-.53-3.54,11.93,11.93,0,0,1,.51-3.54,9.45,9.45,0,0,1,1.42-2.88,6.54,6.54,0,0,1,2.19-1.94,5.8,5.8,0,0,1,2.88-.71,5.68,5.68,0,0,1,2.82.65,6.14,6.14,0,0,1,1.88,1.65A7.83,7.83,0,0,1,85,38.58a15.2,15.2,0,0,1,.58,2.3,12.38,12.38,0,0,1,.18,2A5.36,5.36,0,0,1,85.66,44H76.38a8.4,8.4,0,0,0,1.29,4.48,3.54,3.54,0,0,0,3.06,1.65,4.11,4.11,0,0,0,1.43-.21,2.94,2.94,0,0,0,.89-.51,1.91,1.91,0,0,0,.58-.76l-.32,0a2,2,0,0,1-.71-.18,1.82,1.82,0,0,1-.69-.57,1.76,1.76,0,0,1-.31-1.12,1.8,1.8,0,0,1,.56-1.34,1.84,1.84,0,0,1,1.33-.55,2.1,2.1,0,0,1,1.25.46,1.72,1.72,0,0,1,.63,1.5A5.3,5.3,0,0,1,85,48.63,5.39,5.39,0,0,1,84,50.37a5.68,5.68,0,0,1-1.81,1.3,6,6,0,0,1-2.54.51Zm-.48-16.76a1.44,1.44,0,0,0-1.07.56,5.09,5.09,0,0,0-.85,1.55,13.87,13.87,0,0,0-.6,2.28,20.15,20.15,0,0,0-.27,2.83h5.12c0-.82,0-1.66-.11-2.5A15,15,0,0,0,81,37.82a5.12,5.12,0,0,0-.7-1.73A1.34,1.34,0,0,0,79.13,35.42Z"/><g class="f"><path class="g" d="M72.65,45.68s7.42-4.36,11.7-2-.67-.8,9.76,3.35S92,54.15,92,54.15l-17.92-.67S72.52,46.08,72.65,45.68Z"/></g><path class="h" d="M52,40.86a1.35,1.35,0,0,0-1,.42,3.73,3.73,0,0,0-.76,1.12A7.53,7.53,0,0,0,49.77,44a9.32,9.32,0,0,0-.2,2,9.23,9.23,0,0,0,.2,2,7.45,7.45,0,0,0,.52,1.65,3.49,3.49,0,0,0,.76,1.1,1.37,1.37,0,0,0,1,.4,6.81,6.81,0,0,0,.69,0,2,2,0,0,0,.89-.31,3.1,3.1,0,0,0,.87-.84,4.45,4.45,0,0,0,.63-1.67V43.72a4.45,4.45,0,0,0-.63-1.67,3.1,3.1,0,0,0-.87-.84,2.07,2.07,0,0,0-.89-.31,6.81,6.81,0,0,0-.69,0Zm21.13-6.78a.32.32,0,0,1,.36.36v.07a.32.32,0,0,1-.29.33,1.11,1.11,0,0,0-.74.47,4.11,4.11,0,0,0-.42.84l-5,16H65.55L60.29,36a2.5,2.5,0,0,0-.4-.8,1,1,0,0,0-.84-.4.37.37,0,0,1-.23-.11.28.28,0,0,1-.13-.22v-.07a.32.32,0,0,1,.36-.36h5.81a.32.32,0,0,1,.36.36v.07a.33.33,0,0,1-.29.33.65.65,0,0,0-.45.29.64.64,0,0,0-.06.51l3.27,9.65,2.83-9.14a2.07,2.07,0,0,0,.13-.8c0-.27-.19-.44-.53-.51a.33.33,0,0,1-.29-.33v-.07a.32.32,0,0,1,.36-.36ZM52,52.18a7.23,7.23,0,0,1-2.6-.47,6.44,6.44,0,0,1-2.1-1.31,6.7,6.7,0,0,1-1.42-1.95,5.48,5.48,0,0,1-.52-2.38,5.6,5.6,0,0,1,.52-2.4,6.53,6.53,0,0,1,1.42-2,6.61,6.61,0,0,1,2.1-1.31,7.23,7.23,0,0,1,2.6-.47,7,7,0,0,1,3.08.72V37.77a3.9,3.9,0,0,0-.4-1.41,3.26,3.26,0,0,0-.85-1,2.47,2.47,0,0,0-1.61-.46,4.36,4.36,0,0,0-1.64.26,2.09,2.09,0,0,0-.87.58,1.71,1.71,0,0,1,.93.67,1.93,1.93,0,0,1-.2,2.43,1.9,1.9,0,0,1-2.69,0,1.86,1.86,0,0,1-.54-1.32s0-.22,0-.59a2.37,2.37,0,0,1,.55-1.17A4.34,4.34,0,0,1,49.4,34.6a7.87,7.87,0,0,1,3.25-.52,11.74,11.74,0,0,1,2.25.22,6,6,0,0,1,2.14.83,4.84,4.84,0,0,1,1.61,1.69,5.39,5.39,0,0,1,.64,2.81V50.11a1.45,1.45,0,0,0,.25.8,1.14,1.14,0,0,0,.77.51.33.33,0,0,1,.29.33v.07a.33.33,0,0,1-.37.36H55.08v-.72A7,7,0,0,1,52,52.18Z"/><g class="i"><path class="j" d="M78.14,48.52s-2.78-3.49-13.22-2S53.3,50.47,48.21,52.29s1,1.46,6.73.85,11.14-8.3,18.27-4.63,4.93,0,4.93,0ZM69,43.77s2.21,3.67-4.93,0-12.49,4-18.26,4.63-11.83,1-6.73-.84,6.26-4.22,16.7-5.74S69,43.77,69,43.77Z"/></g><path class="k" d="M42.5,38.18A1.82,1.82,0,0,1,43,36.84a1.8,1.8,0,0,1,1.34-.55,1.28,1.28,0,0,0-.5-.51,2.26,2.26,0,0,0-1.09-.21,3.33,3.33,0,0,0-2.29.76,5,5,0,0,0-1.32,1.81,8.41,8.41,0,0,0-.62,2.14,12.31,12.31,0,0,0-.16,1.78v8a1.4,1.4,0,0,0,.27.8,1.18,1.18,0,0,0,.78.51.33.33,0,0,1,.29.33v.07a.32.32,0,0,1-.36.36H33.25a.32.32,0,0,1-.37-.36v-.07a.33.33,0,0,1,.29-.33,1.1,1.1,0,0,0,.76-.51,1.46,1.46,0,0,0,.26-.8v-14a1.46,1.46,0,0,0-.26-.8,1.1,1.1,0,0,0-.76-.51.33.33,0,0,1-.29-.33v-.07a.32.32,0,0,1,.37-.36H38.4V35.6l.23-.2a5.06,5.06,0,0,1,.8-.52,7.78,7.78,0,0,1,1.25-.55,4.84,4.84,0,0,1,1.6-.25,5,5,0,0,1,1.89.32,3.4,3.4,0,0,1,1.23.88,3.21,3.21,0,0,1,.67,1.23,5.06,5.06,0,0,1,.2,1.38,2.33,2.33,0,0,1-.54,1.48,1.66,1.66,0,0,1-1.35.69,1.84,1.84,0,0,1-1.88-1.88Z"/><g class="l"><path class="m" d="M50.79,33.7H48.08c-.33,0-.6.43-.6,1V54.42c0,.53.27,1,.6,1h2.71c.33,0,.6-.43.6-1V34.66c0-.53-.27-1-.6-1Zm-24.07.6V37c0,.34-.43.61-.95.61H6c-.52,0-1-.27-1-.61V34.3c0-.33.43-.6,1-.6H25.77c.52,0,.95.27.95.6Zm0,17.77v2.71c0,.33-.43.6-.95.6H6c-.52,0-1-.27-1-.6V52.07c0-.33.43-.6,1-.6H25.77c.52,0,.95.27.95.6Zm0-5.92v2.71c0,.33-.43.6-.95.6H6c-.52,0-1-.27-1-.6V46.15c0-.33.43-.61,1-.61H25.77c.52,0,.95.28.95.61Zm0-5.92v2.71c0,.33-.43.6-.95.6H6c-.52,0-1-.27-1-.6V40.23c0-.34.43-.61,1-.61H25.77c.52,0,.95.27.95.61Zm-.6-8.92H23.41c-.33,0-.6-.43-.6-1V10.59c0-.53.27-1,.6-1h2.71c.33,0,.6.43.6,1V30.35c0,.53-.27,1-.6,1Zm-17.76,0H5.65c-.33,0-.6-.43-.6-1V10.59c0-.53.27-1,.6-1H8.36c.33,0,.6.43.6,1V30.35c0,.53-.27,1-.6,1Zm5.92,0H11.57c-.33,0-.6-.43-.6-1V10.59c0-.53.27-1,.6-1h2.71c.33,0,.6.43.6,1V30.35c0,.53-.27,1-.6,1Zm5.92,0H17.49c-.33,0-.6-.43-.6-1V10.59c0-.53.27-1,.6-1H20.2c.33,0,.6.43.6,1V30.35c0,.53-.27,1-.6,1Zm31.19-.6V28c0-.34-.43-.61-1-.61H30.67c-.53,0-1,.27-1,.61v2.71c0,.33.43.6,1,.6H50.44c.52,0,1-.27,1-.6Zm0-17.77V10.23c0-.33-.43-.6-1-.6H30.67c-.53,0-1,.27-1,.6v2.71c0,.33.43.6,1,.6H50.44c.52,0,1-.27,1-.6Zm0,5.92V16.15c0-.33-.43-.6-1-.6H30.67c-.53,0-1,.27-1,.6v2.71c0,.33.43.61,1,.61H50.44c.52,0,1-.28,1-.61Zm0,5.92V22.07c0-.33-.43-.6-1-.6H30.67c-.53,0-1,.27-1,.6v2.71c0,.34.43.61,1,.61H50.44c.52,0,1-.27,1-.61ZM33,33.7H30.32c-.33,0-.61.43-.61,1V54.42c0,.53.28,1,.61,1H33c.33,0,.6-.43.6-1V34.66c0-.53-.27-1-.6-1Zm5.92,0H36.24c-.33,0-.6.43-.6,1V54.42c0,.53.27,1,.6,1H39c.33,0,.6-.43.6-1V34.66c0-.53-.27-1-.6-1Zm5.92,0H42.16c-.33,0-.6.43-.6,1V54.42c0,.53.27,1,.6,1h2.71c.33,0,.6-.43.6-1V34.66C45.47,34.13,45.2,33.7,44.87,33.7Z"/></g><path class="d" d="M72.6,59.71a.69.69,0,0,1-.21.51.73.73,0,0,1-.51.21.69.69,0,0,1-.51-.21.7.7,0,0,1,0-1,.69.69,0,0,1,.51-.21.73.73,0,0,1,.51.21.69.69,0,0,1,.21.51Zm3.8.65a2.63,2.63,0,0,1-1.21-.29,3.11,3.11,0,0,1-1-.78,3.54,3.54,0,0,1-.67-1.17,4,4,0,0,1-.25-1.44,4.27,4.27,0,0,1,.25-1.44,4.14,4.14,0,0,1,.68-1.18,3.41,3.41,0,0,1,1-.79A2.91,2.91,0,0,1,76.5,53a2.15,2.15,0,0,1,1.52.48,1.59,1.59,0,0,1,.51,1.19.9.9,0,0,1-.22.59.71.71,0,0,1-.55.26.74.74,0,0,1-.55-.22.78.78,0,0,1-.22-.55.7.7,0,0,1,.18-.48.82.82,0,0,1,.44-.27.65.65,0,0,0,0-.1.36.36,0,0,0-.11-.15.66.66,0,0,0-.24-.14,1,1,0,0,0-.43-.07,1.27,1.27,0,0,0-.64.18,1.77,1.77,0,0,0-.58.55,3.44,3.44,0,0,0-.42,1A5.5,5.5,0,0,0,75,56.68a3.7,3.7,0,0,0,.15,1.1,2.64,2.64,0,0,0,.42.82,1.68,1.68,0,0,0,.61.52,1.66,1.66,0,0,0,.75.18,1.16,1.16,0,0,0,.66-.18,2,2,0,0,0,.45-.4,2.5,2.5,0,0,0,.33-.58h.34a2,2,0,0,1-.14.63,2.26,2.26,0,0,1-.42.73,2.54,2.54,0,0,1-.72.61,2,2,0,0,1-1,.25ZM81.61,53a2,2,0,0,1,1,.29,2.8,2.8,0,0,1,.86.79,3.72,3.72,0,0,1,.58,1.18,4.73,4.73,0,0,1,.21,1.44,4.82,4.82,0,0,1-.21,1.44,3.56,3.56,0,0,1-.58,1.17,2.68,2.68,0,0,1-.86.79,2,2,0,0,1-1,.29,2.11,2.11,0,0,1-1.06-.29,2.79,2.79,0,0,1-.86-.79,4,4,0,0,1-.57-1.17,4.52,4.52,0,0,1-.22-1.44,4.44,4.44,0,0,1,.22-1.44,4.17,4.17,0,0,1,.57-1.18,2.92,2.92,0,0,1,.86-.79A2.11,2.11,0,0,1,81.61,53Zm0,6.84a.5.5,0,0,0,.38-.24,2.28,2.28,0,0,0,.31-.68,5.82,5.82,0,0,0,.21-1,8.38,8.38,0,0,0,0-2.45,5.82,5.82,0,0,0-.21-1,2.41,2.41,0,0,0-.31-.68.43.43,0,0,0-.77,0,2.41,2.41,0,0,0-.31.68,5.82,5.82,0,0,0-.21,1,9.42,9.42,0,0,0,0,2.45,5.82,5.82,0,0,0,.21,1,2.28,2.28,0,0,0,.31.68.5.5,0,0,0,.39.24ZM93.68,60a.13.13,0,0,1,.11.14v0a.13.13,0,0,1-.15.15H91.15c-.09,0-.14,0-.14-.15v0a.12.12,0,0,1,.1-.14.51.51,0,0,0,.32-.21.62.62,0,0,0,.11-.33V55.11a2.57,2.57,0,0,0-.13-.89.52.52,0,0,0-.55-.36.67.67,0,0,0-.38.1,1.07,1.07,0,0,0-.26.26,1.25,1.25,0,0,0-.16.35,1.72,1.72,0,0,0-.07.37V59.5a.54.54,0,0,0,.11.33.48.48,0,0,0,.32.21.13.13,0,0,1,.11.14v0c0,.1,0,.15-.14.15h-2.5a.13.13,0,0,1-.15-.15v0a.13.13,0,0,1,.12-.14.46.46,0,0,0,.31-.21.6.6,0,0,0,.1-.33V55.11a2.86,2.86,0,0,0-.12-.89.53.53,0,0,0-.56-.36.69.69,0,0,0-.41.12,1.14,1.14,0,0,0-.27.31,1.17,1.17,0,0,0-.14.41,2.17,2.17,0,0,0,0,.41v4.44a.48.48,0,0,0,.11.3.58.58,0,0,0,.32.19.13.13,0,0,1,.12.14v0a.13.13,0,0,1-.15.15h-2.5a.13.13,0,0,1-.15-.15v0a.13.13,0,0,1,.12-.14.52.52,0,0,0,.3-.19.56.56,0,0,0,.12-.3V53.8a.56.56,0,0,0-.12-.3.48.48,0,0,0-.3-.19.14.14,0,0,1-.12-.15v0c0-.09,0-.14.15-.14h2.1v.76a2.33,2.33,0,0,1,.55-.53,1.44,1.44,0,0,1,.9-.25,1.73,1.73,0,0,1,1.13.31,1.78,1.78,0,0,1,.54.74,3,3,0,0,1,.22-.37,1.52,1.52,0,0,1,.33-.34,1.37,1.37,0,0,1,.45-.24,1.57,1.57,0,0,1,.6-.1,1.88,1.88,0,0,1,1,.21,1.53,1.53,0,0,1,.55.52,1.89,1.89,0,0,1,.25.7,4.53,4.53,0,0,1,.06.71V59.5a.62.62,0,0,0,.11.33A.51.51,0,0,0,93.68,60Z"/><path class="k" d="M46.4,23.42a1.6,1.6,0,0,1,1.25.64,3.28,3.28,0,0,1,.69,1.56,5.09,5.09,0,0,1-.11,2,4.24,4.24,0,0,1-1.2,2,7.3,7.3,0,0,1-2.57,1.56,11.89,11.89,0,0,1-4.2.64,34.25,34.25,0,0,1-4.55-.29,34.79,34.79,0,0,1-4-.8v2.68l-.13,30.21A17.34,17.34,0,0,1,31,68.3,10.55,10.55,0,0,1,29.16,72a8.22,8.22,0,0,1-3,2.37,9.69,9.69,0,0,1-4.22.86,8.71,8.71,0,0,1-4.55-1.09,7.29,7.29,0,0,1-2.69-2.72,7.43,7.43,0,0,1-.9-3.52,8,8,0,0,1,.74-3.52,6.82,6.82,0,0,1,2.29-2.72,6.23,6.23,0,0,1,3.7-1.09,5,5,0,0,1,2.52.6,4.54,4.54,0,0,1,1.6,1.5,4.77,4.77,0,0,1,.67,2,3.88,3.88,0,0,1-.28,2,3.48,3.48,0,0,1-1.21,1.51,3.59,3.59,0,0,1-2.14.6,2.48,2.48,0,0,0,.39-.93,4.17,4.17,0,0,0,.1-1.54,2.67,2.67,0,0,0-.62-1.43,2.27,2.27,0,0,0-1.83-.64,3.11,3.11,0,0,0-2.07.71,4,4,0,0,0-1.2,1.74,6.19,6.19,0,0,0-.29,2.27,5.2,5.2,0,0,0,.66,2.27,5.09,5.09,0,0,0,1.63,1.74,4.65,4.65,0,0,0,2.65.7,4.69,4.69,0,0,0,2.82-.85,6.92,6.92,0,0,0,1.93-2.07A9.3,9.3,0,0,0,27,68a10.27,10.27,0,0,0,.37-2.43c.05-12,0-24,.36-36A15.66,15.66,0,0,1,25.88,29l-3.3-1.18c-1-.36-2.07-.66-3-.89a13.15,13.15,0,0,0-2.88-.34,12.24,12.24,0,0,0-3.34.45,9.1,9.1,0,0,0-2.79,1.31,6.49,6.49,0,0,0-1.91,2.1,5.81,5.81,0,0,0-.71,2.89,3.77,3.77,0,0,0,.68,2.27A4.14,4.14,0,0,0,10.24,37a4.63,4.63,0,0,0,2.16.4,4.18,4.18,0,0,0,2.16-.69,4.9,4.9,0,0,0,1.67-1.86,6.51,6.51,0,0,0,.67-3.13,3.33,3.33,0,0,0-.18-1.23,2.91,2.91,0,0,0-.36-.69,1.28,1.28,0,0,0-.55-.36q0-.26.66-.24a2.86,2.86,0,0,1,1.41.51A4.74,4.74,0,0,1,20,33.91a6.39,6.39,0,0,1-1,3.68,6.07,6.07,0,0,1-2.45,2.12,7.17,7.17,0,0,1-6.38-.22,6.75,6.75,0,0,1-2.45-2.28,6.45,6.45,0,0,1-1-3.66,7.77,7.77,0,0,1,1.16-4.47,8.12,8.12,0,0,1,3-2.66,12.76,12.76,0,0,1,4-1.29,29.24,29.24,0,0,1,4.31-.33,23.77,23.77,0,0,1,4.15.42c1.56.28,3.19.58,4.89.91s3.43.63,5.19.9a32.06,32.06,0,0,0,5.06.42,12.23,12.23,0,0,0,4.33-.62,7.42,7.42,0,0,0,2.38-1.37A4.08,4.08,0,0,0,46.4,23.42Z"/><g class="n"><path class="m" d="M45.75,50H43c-.34,0-.61.43-.61,1V70.7c0,.53.27,1,.61,1h2.71c.33,0,.6-.43.6-1V50.94c0-.53-.27-1-.6-1Zm-24.07.6v2.71c0,.34-.43.61-1,.61H1c-.53,0-1-.27-1-.61V50.58c0-.33.43-.6,1-.6H20.72c.53,0,1,.27,1,.6Zm0,17.77v2.71c0,.33-.43.6-1,.6H1c-.53,0-1-.27-1-.6V68.35c0-.33.43-.6,1-.6H20.72c.53,0,1,.27,1,.6Zm0-5.92v2.71c0,.33-.43.6-1,.6H1c-.53,0-1-.27-1-.6V62.43c0-.33.43-.6,1-.6H20.72c.53,0,1,.27,1,.6Zm0-5.92v2.71c0,.33-.43.6-1,.6H1c-.53,0-1-.27-1-.6V56.51c0-.34.43-.61,1-.61H20.72c.53,0,1,.27,1,.61Zm-.6-8.92H18.37c-.34,0-.61-.43-.61-1V26.87c0-.53.27-1,.61-1h2.71c.33,0,.6.43.6,1V46.63c0,.53-.27,1-.6,1Zm-17.77,0H.6c-.33,0-.6-.43-.6-1V26.87c0-.53.27-1,.6-1H3.31c.33,0,.6.43.6,1V46.63c0,.53-.27,1-.6,1Zm5.92,0H6.52c-.33,0-.6-.43-.6-1V26.87c0-.53.27-1,.6-1H9.23c.33,0,.61.43.61,1V46.63c0,.53-.28,1-.61,1Zm5.92,0H12.44c-.33,0-.6-.43-.6-1V26.87c0-.53.27-1,.6-1h2.71c.34,0,.61.43.61,1V46.63c0,.53-.27,1-.61,1Zm31.2-.6V44.28c0-.33-.43-.61-1-.61H25.63c-.53,0-1,.28-1,.61V47c0,.33.43.6,1,.6H45.39c.53,0,1-.27,1-.6Zm0-17.77V26.51c0-.33-.43-.6-1-.6H25.63c-.53,0-1,.27-1,.6v2.71c0,.33.43.6,1,.6H45.39c.53,0,1-.27,1-.6Zm0,5.92V32.43c0-.33-.43-.6-1-.6H25.63c-.53,0-1,.27-1,.6v2.71c0,.33.43.61,1,.61H45.39c.53,0,1-.28,1-.61Zm0,5.92v-2.7c0-.34-.43-.61-1-.61H25.63c-.53,0-1,.27-1,.61v2.7c0,.34.43.61,1,.61H45.39c.53,0,1-.27,1-.61ZM28,50H25.27c-.33,0-.6.43-.6,1V70.7c0,.53.27,1,.6,1H28c.33,0,.6-.43.6-1V50.94c0-.53-.27-1-.6-1Zm5.92,0H31.19c-.33,0-.6.43-.6,1V70.7c0,.53.27,1,.6,1H33.9c.33,0,.6-.43.6-1V50.94c0-.53-.27-1-.6-1Zm5.92,0H37.11c-.33,0-.6.43-.6,1V70.7c0,.53.27,1,.6,1h2.71c.33,0,.61-.43.61-1V50.94C40.43,50.41,40.15,50,39.82,50Z"/></g></svg>