<svg xmlns="http://www.w3.org/2000/svg" xmlns:xlink="http://www.w3.org/1999/xlink" viewBox="0 0 741 441"><defs><style>.a{fill:none;clip-rule:evenodd;}.b{fill:#fff;}.c{fill:#992328;}.c,.e,.f,.h,.i,.k,.l,.n{fill-rule:evenodd;}.d{clip-path:url(#a);}.e{fill:#4a0b20;}.f{fill:#95bd4d;}.g{clip-path:url(#b);}.h{fill:#789b4a;}.i{fill:#57a7b1;}.j{clip-path:url(#c);}.k{fill:#377685;}.l{fill:#dd9e31;}.m{clip-path:url(#d);}.n{fill:#d17c2f;}.o{clip-path:url(#e);}</style><clipPath id="a"><path class="a" d="M535.64,95.45a6.32,6.32,0,0,0,2.2,5.13,19.56,19.56,0,0,0,5.44,3.12q3.24,1.29,7,2.44a31.77,31.77,0,0,1,7,3.12,17,17,0,0,1,5.44,5.26,15.59,15.59,0,0,1,2.2,8.79,17.82,17.82,0,0,1-1.83,8.07,20.37,20.37,0,0,1-4.83,6.29,22.08,22.08,0,0,1-7,4.1,23.82,23.82,0,0,1-8.25,1.46q-8,0-12.47-2.69a16.42,16.42,0,0,1-6.41-6.29,12.6,12.6,0,0,1-1.53-7.21,8.61,8.61,0,0,1,2.08-5.32,6.37,6.37,0,0,1,5-2.44,6.36,6.36,0,1,1,0,12.71,7.24,7.24,0,0,1-2.81-.61,11.91,11.91,0,0,0,3.91,4.44c1.79,1.28,4.44,1.91,7.94,1.91a16.31,16.31,0,0,0,5.74-.91,13.78,13.78,0,0,0,4.1-2.32,9.91,9.91,0,0,0,2.5-3.1A7.6,7.6,0,0,0,552,128a5.86,5.86,0,0,0-2.14-4.81,20,20,0,0,0-5.32-3c-2.11-.86-4.39-1.71-6.84-2.57a32.37,32.37,0,0,1-6.84-3.34,18.2,18.2,0,0,1-5.32-5.38,15.94,15.94,0,0,1-2.14-8.77,17.32,17.32,0,0,1,1.41-7,16.28,16.28,0,0,1,4-5.62,19.73,19.73,0,0,1,6.48-3.77,24.88,24.88,0,0,1,8.61-1.4q8.81,0,12.89,4.33a15,15,0,0,1,4.1,10.7,6.22,6.22,0,0,1-1.83,4.46,6.36,6.36,0,0,1-9.05,0,6.22,6.22,0,0,1-1.83-4.46,6.37,6.37,0,0,1,1.83-4.59,6.06,6.06,0,0,1,4.52-1.89,6.77,6.77,0,0,1,1.47.24,8.94,8.94,0,0,0-3.54-3.17,13.16,13.16,0,0,0-5.87-1.1q-5.37,0-8.19,2.56a8,8,0,0,0-2.81,6.11ZM197.33,326.05c-9.77,0-17.86-1.95-24.22-5.79a38.48,38.48,0,0,1-14.27-14.48A39.29,39.29,0,0,1,154,287.07a43,43,0,0,1,4-18.72,36.61,36.61,0,0,1,12.15-14.47c5.39-3.84,12-5.79,19.69-5.79a25.82,25.82,0,0,1,13.28,3.18,25,25,0,0,1,8.46,8,22.74,22.74,0,0,1,3.57,10.42,23,23,0,0,1-1.45,10.42,18,18,0,0,1-6.34,8c-2.93,2.11-6.72,3.18-11.35,3.18q1-1,2-4.92a22,22,0,0,0,.58-8.2,14.29,14.29,0,0,0-3.29-7.62c-1.84-2.24-5.11-3.38-9.74-3.38a16.49,16.49,0,0,0-11,3.76,21.16,21.16,0,0,0-6.36,9.27,30.87,30.87,0,0,0-1.55,12.06A28.39,28.39,0,0,0,170,304.34a26.2,26.2,0,0,0,8.58,9.26c3.72,2.49,8.43,3.76,14.09,3.76a25,25,0,0,0,15-4.53,39.3,39.3,0,0,0,10.32-11,49.29,49.29,0,0,0,6-13.8,53,53,0,0,0,1.93-12.93V183c4.14,1.15,15.18,3.51,22.38,5v76.85a92.67,92.67,0,0,1-3.18,24.6,55,55,0,0,1-9.52,19.39,43.66,43.66,0,0,1-15.85,12.64c-6.33,3-13.8,4.54-22.39,4.54ZM283.2,90.21a56,56,0,0,0-1.54-12.84,34.57,34.57,0,0,0-5.54-12.06,35.21,35.21,0,0,0-10.67-9.65C261,53,255.25,51,248.27,49.88V131.3a34.12,34.12,0,0,0,11.16-2.12,32.34,32.34,0,0,0,11.36-6.94,39.21,39.21,0,0,0,8.81-12.74c2.38-5.26,3.6-11.71,3.6-19.29ZM225.89,158.4V66.28l.19-.2a117.39,117.39,0,0,1,1.16-16.59,65.71,65.71,0,0,0-18,6,57.13,57.13,0,0,0-16,11.77A58.19,58.19,0,0,0,181.8,84.61a56.46,56.46,0,0,0-4.34,22.57,52.3,52.3,0,0,0,1.35,12.45,47,47,0,0,0,3.47,9.74,30.27,30.27,0,0,0,4.92,7.24,43.31,43.31,0,0,0,5.69,5.12,36.34,36.34,0,0,0,15.44,6.56q0,3.47-3.38,6a17.23,17.23,0,0,1-8.58,3.09,28.61,28.61,0,0,1-11.1-1.16,27.15,27.15,0,0,1-11.09-6.76,37.79,37.79,0,0,1-8.59-13.6q-3.37-8.58-3.38-21.9c0-10.94,2-20.59,5.79-28.95a66.67,66.67,0,0,1,15.12-21.22,69,69,0,0,1,21.16-13.51,95.13,95.13,0,0,1,21.4-5.8c11.43-1.76,12.66-1.52,24.93-.4a87.21,87.21,0,0,1,23.62,5.14,57,57,0,0,1,17.52,10.32,38.55,38.55,0,0,1,10.07,13.9A42.52,42.52,0,0,1,305,89.82c0,8.23-1.51,15.33-4.53,21.22a40.52,40.52,0,0,1-12.41,14.57A54,54,0,0,1,270,134a85.45,85.45,0,0,1-21.68,2.7v25.18c-6.94-1.11-16.89-2.65-22.38-3.49Zm274.63-19.69a4,4,0,0,0,3.18-2,19.47,19.47,0,0,0,2.56-5.6A53,53,0,0,0,508,122.8a76.76,76.76,0,0,0,0-20.24,53,53,0,0,0-1.78-8.29,19.73,19.73,0,0,0-2.56-5.6,3.51,3.51,0,0,0-6.36,0,19.73,19.73,0,0,0-2.56,5.6,53,53,0,0,0-1.78,8.29,76.76,76.76,0,0,0,0,20.24,53,53,0,0,0,1.78,8.29,19.47,19.47,0,0,0,2.56,5.6,4,4,0,0,0,3.18,2Zm.06-56.58a17.18,17.18,0,0,0-8.76,2.39,22.56,22.56,0,0,0-7.1,6.53,34.18,34.18,0,0,0-4.79,9.72,41,41,0,0,0,0,23.83,34.25,34.25,0,0,0,4.79,9.71,22.71,22.71,0,0,0,7.1,6.54,17.17,17.17,0,0,0,8.76,2.38,16.82,16.82,0,0,0,8.7-2.38,23.76,23.76,0,0,0,7.11-6.54,32.49,32.49,0,0,0,4.78-9.71,42.37,42.37,0,0,0,0-23.83,32.43,32.43,0,0,0-4.78-9.72,23.6,23.6,0,0,0-7.11-6.53,16.83,16.83,0,0,0-8.7-2.39ZM479,59.16a4.05,4.05,0,0,0-2.63,1.71,4.75,4.75,0,0,0-.91,2.69v72.59a5,5,0,0,0,.91,2.74,3.59,3.59,0,0,0,2.63,1.65,1.14,1.14,0,0,1,.86,1.23V142a1.08,1.08,0,0,1-1.23,1.22H458.06a1.08,1.08,0,0,1-1.22-1.22v-.24a1.14,1.14,0,0,1,.86-1.23,3.57,3.57,0,0,0,2.62-1.65,5,5,0,0,0,.92-2.74V63.56a4.76,4.76,0,0,0-.92-2.69,4,4,0,0,0-2.62-1.71,1.06,1.06,0,0,1-.86-1.1v-.25a1.08,1.08,0,0,1,1.22-1.22h20.53a1.08,1.08,0,0,1,1.23,1.22v.25a1.06,1.06,0,0,1-.86,1.1Zm-44,27.62a5.1,5.1,0,0,0-3.79,1.83,15.42,15.42,0,0,0-2.94,5v39a12.37,12.37,0,0,0,2.81,4.46,5.51,5.51,0,0,0,3.92,1.65,4.67,4.67,0,0,0,3.42-2,18.74,18.74,0,0,0,3.05-5.56,46.8,46.8,0,0,0,2.2-8.24,59.56,59.56,0,0,0,0-20.17,46.8,46.8,0,0,0-2.2-8.24,19.88,19.88,0,0,0-3.05-5.63q-1.71-2.07-3.42-2.07Zm-24.2,56.45h17.47v-2.08a17.09,17.09,0,0,0,16.87-.3,24.1,24.1,0,0,0,7.08-6.48,31.32,31.32,0,0,0,4.77-9.65,42.37,42.37,0,0,0,0-23.83,32.12,32.12,0,0,0-4.77-9.71,23.79,23.79,0,0,0-7.08-6.54,17.12,17.12,0,0,0-16.87-.31V63.68a5,5,0,0,1,.92-2.75,3.59,3.59,0,0,1,2.63-1.65,1.12,1.12,0,0,0,.85-1.22v-.25a1.08,1.08,0,0,0-1.22-1.22H410.72a1.08,1.08,0,0,0-1.22,1.22v.25a1.15,1.15,0,0,0,1,1.22,3.57,3.57,0,0,1,2.62,1.65,5,5,0,0,1,.92,2.75v72.59a4.79,4.79,0,0,1-.92,2.69,4.1,4.1,0,0,1-2.62,1.71,1.09,1.09,0,0,0-1,1.1V142a1.08,1.08,0,0,0,1.22,1.22ZM386.84,86.78a4.77,4.77,0,0,0-3.61,1.89,16.76,16.76,0,0,0-2.87,5.19,46.24,46.24,0,0,0-2,7.7,63.06,63.06,0,0,0-.91,9.53h17.23q0-4.16-.37-8.43a52,52,0,0,0-1.22-7.82,17.68,17.68,0,0,0-2.38-5.8,4.51,4.51,0,0,0-3.85-2.26Zm1.59,56.45A22.39,22.39,0,0,1,378,140.85a24.38,24.38,0,0,1-7.94-6.48,29.38,29.38,0,0,1-5.07-9.65,38.79,38.79,0,0,1-1.78-11.92A40.34,40.34,0,0,1,365,100.89a32.12,32.12,0,0,1,4.77-9.71,22.7,22.7,0,0,1,7.39-6.54,19.82,19.82,0,0,1,9.72-2.38,18.9,18.9,0,0,1,9.47,2.19A20.49,20.49,0,0,1,402.66,90a25.89,25.89,0,0,1,3.85,7.39,50.15,50.15,0,0,1,2,7.76,42.11,42.11,0,0,1,.61,6.6,18.71,18.71,0,0,1-.25,3.85H377.55q.49,9.52,4.34,15.09a12,12,0,0,0,10.32,5.56,13.47,13.47,0,0,0,4.83-.74,9.45,9.45,0,0,0,3-1.71,6.57,6.57,0,0,0,2-2.56l-1.1-.06a7.24,7.24,0,0,1-2.38-.62,5.76,5.76,0,0,1-2.32-1.89,6.78,6.78,0,0,1,.85-8.31,6.2,6.2,0,0,1,4.46-1.83,7.31,7.31,0,0,1,4.22,1.52c1.42,1,2.14,2.71,2.14,5.08a18.21,18.21,0,0,1-4.77,12,19.06,19.06,0,0,1-6.11,4.4,20,20,0,0,1-8.55,1.71ZM362,82.26a1.08,1.08,0,0,1,1.22,1.22v.24a1.09,1.09,0,0,1-1,1.1,4.1,4.1,0,0,0-2.62,1.71,4.69,4.69,0,0,0-.92,2.69v47.05a4.71,4.71,0,0,0,.92,2.69,4.1,4.1,0,0,0,2.62,1.71,1.09,1.09,0,0,1,1,1.1V142a1.08,1.08,0,0,1-1.22,1.22H344.5v-6.6a18.18,18.18,0,0,1-4.76,4.52,13.38,13.38,0,0,1-7.7,2.08,17.45,17.45,0,0,1-8.37-1.71,13.18,13.18,0,0,1-4.83-4.34,15.31,15.31,0,0,1-2.26-5.74,33.82,33.82,0,0,1-.55-5.93V89.22a5,5,0,0,0-.85-2.69,3.9,3.9,0,0,0-2.57-1.71,1.09,1.09,0,0,1-1-1.1v-.24a1.08,1.08,0,0,1,1.22-1.22h20.66a1.08,1.08,0,0,1,1.22,1.22v.24a1.09,1.09,0,0,1-1,1.1,4.13,4.13,0,0,0-2.63,1.71,4.75,4.75,0,0,0-.91,2.69v36.29a16.77,16.77,0,0,0,1.46,7.46,5.07,5.07,0,0,0,4.89,2.93,6.74,6.74,0,0,0,5.5-2.2,11.49,11.49,0,0,0,2.44-4.77V89.22a5,5,0,0,0-.85-2.69,3.9,3.9,0,0,0-2.57-1.71,1.09,1.09,0,0,1-1-1.1v-.24a1.08,1.08,0,0,1,1.23-1.22Z"/></clipPath><clipPath id="b"><path class="a" d="M562,205.37a5.76,5.76,0,0,0-3.7,2.41,6.7,6.7,0,0,0-1.29,3.79v69.3c0,4,2,3.1,5.18,3.1a6.7,6.7,0,0,0,3.79-1.29c1.26-.86,2.56-6.3,2.9-7.91a1.49,1.49,0,0,1,1.55-1.2h.35a1.53,1.53,0,0,1,1.72,1.72l.18,19.91a1.52,1.52,0,0,1-1.72,1.72h-.35a1.47,1.47,0,0,1-1.54-1.21,5.79,5.79,0,0,0-2.41-3.7,6.72,6.72,0,0,0-3.79-1.29c-10.06,0-20.23.13-30.32.13a1.52,1.52,0,0,1-1.72-1.72v-.34a1.6,1.6,0,0,1,1.21-1.73,5.06,5.06,0,0,0,3.7-2.32,7.09,7.09,0,0,0,1.29-3.87v-69.3a6.7,6.7,0,0,0-1.29-3.79,5.76,5.76,0,0,0-3.7-2.41,1.48,1.48,0,0,1-1.21-1.55v-.34a1.52,1.52,0,0,1,1.72-1.72h28.93a1.52,1.52,0,0,1,1.72,1.72v.34a1.49,1.49,0,0,1-1.2,1.55Zm-60.53,85.48a31.55,31.55,0,0,1-14.63-3.36,34.43,34.43,0,0,1-11.2-9.12,41.42,41.42,0,0,1-7.14-13.61A54.79,54.79,0,0,1,466,248a56.7,56.7,0,0,1,2.41-16.79,45.43,45.43,0,0,1,6.72-13.69,31.68,31.68,0,0,1,10.42-9.21,27.89,27.89,0,0,1,13.68-3.36,26.53,26.53,0,0,1,13.35,3.1,28.63,28.63,0,0,1,9,7.83,36.82,36.82,0,0,1,5.43,10.42,70.81,70.81,0,0,1,2.75,10.93,57.63,57.63,0,0,1,.86,9.3,27.32,27.32,0,0,1-.34,5.43H486.13q.69,13.43,6.11,21.26T506.79,281a19,19,0,0,0,6.8-1,13.58,13.58,0,0,0,4.22-2.41,9.35,9.35,0,0,0,2.76-3.61l-1.55-.09a9.92,9.92,0,0,1-3.36-.86,8.31,8.31,0,0,1-3.27-2.67,9.53,9.53,0,0,1,1.2-11.71,8.76,8.76,0,0,1,6.29-2.58,10.25,10.25,0,0,1,5.94,2.15q3,2.16,3,7.15a25.48,25.48,0,0,1-6.71,16.87,26.81,26.81,0,0,1-8.61,6.2,28.25,28.25,0,0,1-12.06,2.41Zm-2.24-79.55a6.7,6.7,0,0,0-5.07,2.67,23.4,23.4,0,0,0-4.05,7.32,63.3,63.3,0,0,0-2.84,10.84A86.45,86.45,0,0,0,486,245.56h24.28q0-5.85-.52-11.88a75.44,75.44,0,0,0-1.72-11,25.38,25.38,0,0,0-3.36-8.18A6.38,6.38,0,0,0,499.21,211.3Z"/></clipPath><clipPath id="c"><path class="a" d="M370.41,237.13a6.38,6.38,0,0,0-4.48,2,17.29,17.29,0,0,0-3.61,5.31,36.85,36.85,0,0,0-2.5,7.8,49.64,49.64,0,0,0,0,19.23,36.77,36.77,0,0,0,2.5,7.81,16.11,16.11,0,0,0,3.61,5.22,6.53,6.53,0,0,0,4.48,1.89c.8,0,1.9-.05,3.27-.17a9.71,9.71,0,0,0,4.22-1.46,14.7,14.7,0,0,0,4.14-4,20.67,20.67,0,0,0,3-7.89V250.67a20.67,20.67,0,0,0-3-7.89,14.7,14.7,0,0,0-4.14-4,9.71,9.71,0,0,0-4.22-1.46c-1.37-.12-2.47-.17-3.27-.17Zm100.31-32.2a1.52,1.52,0,0,1,1.72,1.72V207c0,.81-.46,1.32-1.38,1.55a5.3,5.3,0,0,0-3.53,2.24,20.9,20.9,0,0,0-2,4L442,290.85h-7.23l-25-76.62a11.73,11.73,0,0,0-1.9-3.79,4.57,4.57,0,0,0-4-1.9,1.83,1.83,0,0,1-1.12-.51,1.43,1.43,0,0,1-.6-1v-.34a1.52,1.52,0,0,1,1.72-1.72h27.56a1.52,1.52,0,0,1,1.72,1.72V207c0,.81-.46,1.32-1.38,1.55a2.88,2.88,0,0,0-2.41,3.79l15.5,45.81,13.43-43.4a9.62,9.62,0,0,0,.6-3.79c-.06-1.26-.89-2.06-2.5-2.41a1.53,1.53,0,0,1-1.37-1.55v-.34a1.52,1.52,0,0,1,1.72-1.72ZM370.41,290.85a33.55,33.55,0,0,1-12.31-2.24,30.63,30.63,0,0,1-10-6.22,30.3,30.3,0,0,1-6.71-9.24,26,26,0,0,1-2.5-11.31,26.57,26.57,0,0,1,2.5-11.4,29.93,29.93,0,0,1,6.71-9.32,30.66,30.66,0,0,1,10-6.23,33.76,33.76,0,0,1,12.31-2.24,33.36,33.36,0,0,1,14.64,3.42V222.46a18.37,18.37,0,0,0-1.9-6.68,15.23,15.23,0,0,0-4-4.74c-1.78-1.44-4.34-2.15-7.67-2.15a20.74,20.74,0,0,0-7.74,1.2,10,10,0,0,0-4.14,2.76A8.17,8.17,0,0,1,364,216a8.85,8.85,0,0,1,1.64,5.26,8.74,8.74,0,0,1-2.58,6.28,8.93,8.93,0,0,1-12.74,0,8.71,8.71,0,0,1-2.59-6.28c0-.12.09-1,.26-2.76a11.29,11.29,0,0,1,2.58-5.6,20.61,20.61,0,0,1,7.58-5.51q5.25-2.49,15.41-2.49a57.91,57.91,0,0,1,10.68,1,29,29,0,0,1,10.16,4,23.29,23.29,0,0,1,7.66,8q3,5.07,3,13.34V281a6.94,6.94,0,0,0,1.21,3.78,5.43,5.43,0,0,0,3.61,2.42c.92.23,1.38.74,1.38,1.55v.34a1.52,1.52,0,0,1-1.72,1.72H385.05v-3.41A33.49,33.49,0,0,1,370.41,290.85Z"/></clipPath><clipPath id="d"><path class="a" d="M325.32,224.38a8.81,8.81,0,0,1,8.95-8.95,6,6,0,0,0-2.41-2.41,10.25,10.25,0,0,0-5.17-1q-6.7,0-10.84,3.61a23.86,23.86,0,0,0-6.29,8.61,41.35,41.35,0,0,0-2.93,10.16,60.25,60.25,0,0,0-.77,8.44V281a6.67,6.67,0,0,0,1.29,3.78,5.76,5.76,0,0,0,3.7,2.42c.92.23,1.38.74,1.38,1.55v.34a1.52,1.52,0,0,1-1.72,1.72h-29.1a1.52,1.52,0,0,1-1.73-1.72v-.34c0-.81.46-1.32,1.38-1.55a5.43,5.43,0,0,0,3.62-2.42,7,7,0,0,0,1.2-3.78v-66.3a7.06,7.06,0,0,0-1.2-3.79,5.45,5.45,0,0,0-3.62-2.41c-.92-.23-1.38-.74-1.38-1.55v-.34a1.52,1.52,0,0,1,1.73-1.72h24.45v7.23c-.12.11.26-.2,1.12-.95a22.34,22.34,0,0,1,3.79-2.49,39.16,39.16,0,0,1,5.94-2.59,25.62,25.62,0,0,1,16.53.35,15.8,15.8,0,0,1,5.85,4.13,15.32,15.32,0,0,1,3.19,5.86,23.4,23.4,0,0,1,.94,6.54,11.19,11.19,0,0,1-2.58,7.06,7.84,7.84,0,0,1-6.37,3.27,8.81,8.81,0,0,1-8.95-9Z"/></clipPath><clipPath id="e"><path class="a" d="M343.82,154.36a7.47,7.47,0,0,1,5.94,3,15.58,15.58,0,0,1,3.28,7.4,23.48,23.48,0,0,1-.52,9.65,20.62,20.62,0,0,1-5.68,9.64,34.69,34.69,0,0,1-12.23,7.4c-5.22,2-11.85,3-19.89,3a161.05,161.05,0,0,1-21.61-1.38,158.34,158.34,0,0,1-19.2-3.79v12.74l-.58,143.37a82.92,82.92,0,0,1-2.84,21.95,49.55,49.55,0,0,1-8.5,17.3A39,39,0,0,1,247.79,396a46.33,46.33,0,0,1-20,4.05q-13.09,0-21.61-5.17a34.26,34.26,0,0,1-12.75-12.91,35,35,0,0,1-4.3-16.7,38.45,38.45,0,0,1,3.53-16.71,32.68,32.68,0,0,1,10.85-12.91c4.81-3.43,10.67-5.17,17.56-5.17a23.64,23.64,0,0,1,12,2.84,21.25,21.25,0,0,1,7.58,7.15,21.81,21.81,0,0,1,3.18,9.3,18.56,18.56,0,0,1-1.29,9.3,16.58,16.58,0,0,1-5.77,7.14A17,17,0,0,1,226.55,369c.57-.58,1.21-2.05,1.84-4.4a19.43,19.43,0,0,0,.51-7.32,12.63,12.63,0,0,0-3-6.8c-1.66-2-4.57-3-8.7-3a14.64,14.64,0,0,0-9.81,3.36,18.72,18.72,0,0,0-5.68,8.26,27.74,27.74,0,0,0-1.38,10.77,24.5,24.5,0,0,0,3.1,10.76,24.1,24.1,0,0,0,7.75,8.26c3.31,2.23,7.51,3.36,12.57,3.36a22.35,22.35,0,0,0,13.4-4.05,33.66,33.66,0,0,0,9.15-9.81,45.48,45.48,0,0,0,5.28-12.31,47.79,47.79,0,0,0,1.73-11.54c.25-57.06-.06-114,1.74-171-6.08-1.84-3.21-.76-8.65-2.76s-10.68-3.88-15.67-5.6A148.61,148.61,0,0,0,216.31,171a60.32,60.32,0,0,0-13.69-1.63,57.86,57.86,0,0,0-15.84,2.15,42.68,42.68,0,0,0-13.26,6.2,30.79,30.79,0,0,0-9,10,27.44,27.44,0,0,0-3.35,13.69,17.88,17.88,0,0,0,3.18,10.77,19.82,19.82,0,0,0,7.92,6.54,22,22,0,0,0,10.25,1.89,20.51,20.51,0,0,0,10.24-3.27,23.35,23.35,0,0,0,7.92-8.87q3.2-5.85,3.19-14.81a15.79,15.79,0,0,0-.86-5.85,12.73,12.73,0,0,0-1.72-3.27,6.14,6.14,0,0,0-2.59-1.72c0-.81,1-1.17,3.1-1.12a13.28,13.28,0,0,1,6.72,2.41,23.27,23.27,0,0,1,6.72,7.14q3.09,4.81,3.09,12.92,0,10.68-4.64,17.48A28.78,28.78,0,0,1,202,231.67a32.77,32.77,0,0,1-15.15,3,33.39,33.39,0,0,1-15.15-4,32.29,32.29,0,0,1-11.63-10.85q-4.65-7.06-4.65-17.39,0-13.1,5.51-21.18a38.56,38.56,0,0,1,14.18-12.66,59.6,59.6,0,0,1,19.17-6.11,140.4,140.4,0,0,1,20.46-1.55,113.48,113.48,0,0,1,19.69,2q11.1,2,23.22,4.3c8.06,1.54,16.28,3,24.6,4.31a154.39,154.39,0,0,0,24,2q13.08,0,20.57-2.93c5-1.95,8.77-4.13,11.28-6.54A19.12,19.12,0,0,0,343.82,154.36Z"/></clipPath></defs><title>Recurso 2</title><rect class="b" width="741" height="441" rx="33.61"/><path class="c" d="M535.64,95.45a6.32,6.32,0,0,0,2.2,5.13,19.56,19.56,0,0,0,5.44,3.12q3.24,1.29,7,2.44a31.77,31.77,0,0,1,7,3.12,17,17,0,0,1,5.44,5.26,15.59,15.59,0,0,1,2.2,8.79,17.82,17.82,0,0,1-1.83,8.07,20.37,20.37,0,0,1-4.83,6.29,22.08,22.08,0,0,1-7,4.1,23.82,23.82,0,0,1-8.25,1.46q-8,0-12.47-2.69a16.42,16.42,0,0,1-6.41-6.29,12.6,12.6,0,0,1-1.53-7.21,8.61,8.61,0,0,1,2.08-5.32,6.37,6.37,0,0,1,5-2.44,6.36,6.36,0,1,1,0,12.71,7.24,7.24,0,0,1-2.81-.61,11.91,11.91,0,0,0,3.91,4.44c1.79,1.28,4.44,1.91,7.94,1.91a16.31,16.31,0,0,0,5.74-.91,13.78,13.78,0,0,0,4.1-2.32,9.91,9.91,0,0,0,2.5-3.1A7.6,7.6,0,0,0,552,128a5.86,5.86,0,0,0-2.14-4.81,20,20,0,0,0-5.32-3c-2.11-.86-4.39-1.71-6.84-2.57a32.37,32.37,0,0,1-6.84-3.34,18.2,18.2,0,0,1-5.32-5.38,15.94,15.94,0,0,1-2.14-8.77,17.32,17.32,0,0,1,1.41-7,16.28,16.28,0,0,1,4-5.62,19.73,19.73,0,0,1,6.48-3.77,24.88,24.88,0,0,1,8.61-1.4q8.81,0,12.89,4.33a15,15,0,0,1,4.1,10.7,6.22,6.22,0,0,1-1.83,4.46,6.36,6.36,0,0,1-9.05,0,6.22,6.22,0,0,1-1.83-4.46,6.37,6.37,0,0,1,1.83-4.59,6.06,6.06,0,0,1,4.52-1.89,6.77,6.77,0,0,1,1.47.24,8.94,8.94,0,0,0-3.54-3.17,13.16,13.16,0,0,0-5.87-1.1q-5.37,0-8.19,2.56a8,8,0,0,0-2.81,6.11ZM197.33,326.05c-9.77,0-17.86-1.95-24.22-5.79a38.48,38.48,0,0,1-14.27-14.48A39.29,39.29,0,0,1,154,287.07a43,43,0,0,1,4-18.72,36.61,36.61,0,0,1,12.15-14.47c5.39-3.84,12-5.79,19.69-5.79a25.82,25.82,0,0,1,13.28,3.18,25,25,0,0,1,8.46,8,22.74,22.74,0,0,1,3.57,10.42,23,23,0,0,1-1.45,10.42,18,18,0,0,1-6.34,8c-2.93,2.11-6.72,3.18-11.35,3.18q1-1,2-4.92a22,22,0,0,0,.58-8.2,14.29,14.29,0,0,0-3.29-7.62c-1.84-2.24-5.11-3.38-9.74-3.38a16.49,16.49,0,0,0-11,3.76,21.16,21.16,0,0,0-6.36,9.27,30.87,30.87,0,0,0-1.55,12.06A28.39,28.39,0,0,0,170,304.34a26.2,26.2,0,0,0,8.58,9.26c3.72,2.49,8.43,3.76,14.09,3.76a25,25,0,0,0,15-4.53,39.3,39.3,0,0,0,10.32-11,49.29,49.29,0,0,0,6-13.8,53,53,0,0,0,1.93-12.93V183c4.14,1.15,15.18,3.51,22.38,5v76.85a92.67,92.67,0,0,1-3.18,24.6,55,55,0,0,1-9.52,19.39,43.66,43.66,0,0,1-15.85,12.64c-6.33,3-13.8,4.54-22.39,4.54ZM283.2,90.21a56,56,0,0,0-1.54-12.84,34.57,34.57,0,0,0-5.54-12.06,35.21,35.21,0,0,0-10.67-9.65C261,53,255.25,51,248.27,49.88V131.3a34.12,34.12,0,0,0,11.16-2.12,32.34,32.34,0,0,0,11.36-6.94,39.21,39.21,0,0,0,8.81-12.74c2.38-5.26,3.6-11.71,3.6-19.29ZM225.89,158.4V66.28l.19-.2a117.39,117.39,0,0,1,1.16-16.59,65.71,65.71,0,0,0-18,6,57.13,57.13,0,0,0-16,11.77A58.19,58.19,0,0,0,181.8,84.61a56.46,56.46,0,0,0-4.34,22.57,52.3,52.3,0,0,0,1.35,12.45,47,47,0,0,0,3.47,9.74,30.27,30.27,0,0,0,4.92,7.24,43.31,43.31,0,0,0,5.69,5.12,36.34,36.34,0,0,0,15.44,6.56q0,3.47-3.38,6a17.23,17.23,0,0,1-8.58,3.09,28.61,28.61,0,0,1-11.1-1.16,27.15,27.15,0,0,1-11.09-6.76,37.79,37.79,0,0,1-8.59-13.6q-3.37-8.58-3.38-21.9c0-10.94,2-20.59,5.79-28.95a66.67,66.67,0,0,1,15.12-21.22,69,69,0,0,1,21.16-13.51,95.13,95.13,0,0,1,21.4-5.8c11.43-1.76,12.66-1.52,24.93-.4a87.21,87.21,0,0,1,23.62,5.14,57,57,0,0,1,17.52,10.32,38.55,38.55,0,0,1,10.07,13.9A42.52,42.52,0,0,1,305,89.82c0,8.23-1.51,15.33-4.53,21.22a40.52,40.52,0,0,1-12.41,14.57A54,54,0,0,1,270,134a85.45,85.45,0,0,1-21.68,2.7v25.18c-6.94-1.11-16.89-2.65-22.38-3.49Zm274.63-19.69a4,4,0,0,0,3.18-2,19.47,19.47,0,0,0,2.56-5.6A53,53,0,0,0,508,122.8a76.76,76.76,0,0,0,0-20.24,53,53,0,0,0-1.78-8.29,19.73,19.73,0,0,0-2.56-5.6,3.51,3.51,0,0,0-6.36,0,19.73,19.73,0,0,0-2.56,5.6,53,53,0,0,0-1.78,8.29,76.76,76.76,0,0,0,0,20.24,53,53,0,0,0,1.78,8.29,19.47,19.47,0,0,0,2.56,5.6,4,4,0,0,0,3.18,2Zm.06-56.58a17.18,17.18,0,0,0-8.76,2.39,22.56,22.56,0,0,0-7.1,6.53,34.18,34.18,0,0,0-4.79,9.72,41,41,0,0,0,0,23.83,34.25,34.25,0,0,0,4.79,9.71,22.71,22.71,0,0,0,7.1,6.54,17.17,17.17,0,0,0,8.76,2.38,16.82,16.82,0,0,0,8.7-2.38,23.76,23.76,0,0,0,7.11-6.54,32.49,32.49,0,0,0,4.78-9.71,42.37,42.37,0,0,0,0-23.83,32.43,32.43,0,0,0-4.78-9.72,23.6,23.6,0,0,0-7.11-6.53,16.83,16.83,0,0,0-8.7-2.39ZM479,59.16a4.05,4.05,0,0,0-2.63,1.71,4.75,4.75,0,0,0-.91,2.69v72.59a5,5,0,0,0,.91,2.74,3.59,3.59,0,0,0,2.63,1.65,1.14,1.14,0,0,1,.86,1.23V142a1.08,1.08,0,0,1-1.23,1.22H458.06a1.08,1.08,0,0,1-1.22-1.22v-.24a1.14,1.14,0,0,1,.86-1.23,3.57,3.57,0,0,0,2.62-1.65,5,5,0,0,0,.92-2.74V63.56a4.76,4.76,0,0,0-.92-2.69,4,4,0,0,0-2.62-1.71,1.06,1.06,0,0,1-.86-1.1v-.25a1.08,1.08,0,0,1,1.22-1.22h20.53a1.08,1.08,0,0,1,1.23,1.22v.25a1.06,1.06,0,0,1-.86,1.1Zm-44,27.62a5.1,5.1,0,0,0-3.79,1.83,15.42,15.42,0,0,0-2.94,5v39a12.37,12.37,0,0,0,2.81,4.46,5.51,5.51,0,0,0,3.92,1.65,4.67,4.67,0,0,0,3.42-2,18.74,18.74,0,0,0,3.05-5.56,46.8,46.8,0,0,0,2.2-8.24,59.56,59.56,0,0,0,0-20.17,46.8,46.8,0,0,0-2.2-8.24,19.88,19.88,0,0,0-3.05-5.63q-1.71-2.07-3.42-2.07Zm-24.2,56.45h17.47v-2.08a17.09,17.09,0,0,0,16.87-.3,24.1,24.1,0,0,0,7.08-6.48,31.32,31.32,0,0,0,4.77-9.65,42.37,42.37,0,0,0,0-23.83,32.12,32.12,0,0,0-4.77-9.71,23.79,23.79,0,0,0-7.08-6.54,17.12,17.12,0,0,0-16.87-.31V63.68a5,5,0,0,1,.92-2.75,3.59,3.59,0,0,1,2.63-1.65,1.12,1.12,0,0,0,.85-1.22v-.25a1.08,1.08,0,0,0-1.22-1.22H410.72a1.08,1.08,0,0,0-1.22,1.22v.25a1.15,1.15,0,0,0,1,1.22,3.57,3.57,0,0,1,2.62,1.65,5,5,0,0,1,.92,2.75v72.59a4.79,4.79,0,0,1-.92,2.69,4.1,4.1,0,0,1-2.62,1.71,1.09,1.09,0,0,0-1,1.1V142a1.08,1.08,0,0,0,1.22,1.22ZM386.84,86.78a4.77,4.77,0,0,0-3.61,1.89,16.76,16.76,0,0,0-2.87,5.19,46.24,46.24,0,0,0-2,7.7,63.06,63.06,0,0,0-.91,9.53h17.23q0-4.16-.37-8.43a52,52,0,0,0-1.22-7.82,17.68,17.68,0,0,0-2.38-5.8,4.51,4.51,0,0,0-3.85-2.26Zm1.59,56.45A22.39,22.39,0,0,1,378,140.85a24.38,24.38,0,0,1-7.94-6.48,29.38,29.38,0,0,1-5.07-9.65,38.79,38.79,0,0,1-1.78-11.92A40.34,40.34,0,0,1,365,100.89a32.12,32.12,0,0,1,4.77-9.71,22.7,22.7,0,0,1,7.39-6.54,19.82,19.82,0,0,1,9.72-2.38,18.9,18.9,0,0,1,9.47,2.19A20.49,20.49,0,0,1,402.66,90a25.89,25.89,0,0,1,3.85,7.39,50.15,50.15,0,0,1,2,7.76,42.11,42.11,0,0,1,.61,6.6,18.71,18.71,0,0,1-.25,3.85H377.55q.49,9.52,4.34,15.09a12,12,0,0,0,10.32,5.56,13.47,13.47,0,0,0,4.83-.74,9.45,9.45,0,0,0,3-1.71,6.57,6.57,0,0,0,2-2.56l-1.1-.06a7.24,7.24,0,0,1-2.38-.62,5.76,5.76,0,0,1-2.32-1.89,6.78,6.78,0,0,1,.85-8.31,6.2,6.2,0,0,1,4.46-1.83,7.31,7.31,0,0,1,4.22,1.52c1.42,1,2.14,2.71,2.14,5.08a18.21,18.21,0,0,1-4.77,12,19.06,19.06,0,0,1-6.11,4.4,20,20,0,0,1-8.55,1.71ZM362,82.26a1.08,1.08,0,0,1,1.22,1.22v.24a1.09,1.09,0,0,1-1,1.1,4.1,4.1,0,0,0-2.62,1.71,4.69,4.69,0,0,0-.92,2.69v47.05a4.71,4.71,0,0,0,.92,2.69,4.1,4.1,0,0,0,2.62,1.71,1.09,1.09,0,0,1,1,1.1V142a1.08,1.08,0,0,1-1.22,1.22H344.5v-6.6a18.18,18.18,0,0,1-4.76,4.52,13.38,13.38,0,0,1-7.7,2.08,17.45,17.45,0,0,1-8.37-1.71,13.18,13.18,0,0,1-4.83-4.34,15.31,15.31,0,0,1-2.26-5.74,33.82,33.82,0,0,1-.55-5.93V89.22a5,5,0,0,0-.85-2.69,3.9,3.9,0,0,0-2.57-1.71,1.09,1.09,0,0,1-1-1.1v-.24a1.08,1.08,0,0,1,1.22-1.22h20.66a1.08,1.08,0,0,1,1.22,1.22v.24a1.09,1.09,0,0,1-1,1.1,4.13,4.13,0,0,0-2.63,1.71,4.75,4.75,0,0,0-.91,2.69v36.29a16.77,16.77,0,0,0,1.46,7.46,5.07,5.07,0,0,0,4.89,2.93,6.74,6.74,0,0,0,5.5-2.2,11.49,11.49,0,0,0,2.44-4.77V89.22a5,5,0,0,0-.85-2.69,3.9,3.9,0,0,0-2.57-1.71,1.09,1.09,0,0,1-1-1.1v-.24a1.08,1.08,0,0,1,1.23-1.22Z"/><g class="d"><path class="e" d="M201.8,114h71.68a30.24,30.24,0,0,1,30.15,30.15v158.1c0,16.58-13.61,29-30.15,30.15l-98.66,6.74C158.27,340.24,142,325.33,144.67,309l27-164.85C174.33,127.75,185.22,114,201.8,114Zm299.46,0h71.68a30.24,30.24,0,0,1,30.15,30.15v158.1a30.24,30.24,0,0,1-30.15,30.15H501.26a30.24,30.24,0,0,1-30.15-30.15V144.12A30.24,30.24,0,0,1,501.26,114Zm-150.07,0h71.69A30.23,30.23,0,0,1,453,144.12v158.1a30.23,30.23,0,0,1-30.14,30.15H351.19a30.23,30.23,0,0,1-30.14-30.15V144.12A30.23,30.23,0,0,1,351.19,114Z"/></g><path class="f" d="M562,205.37a5.76,5.76,0,0,0-3.7,2.41,6.7,6.7,0,0,0-1.29,3.79v69.3c0,4,2,3.1,5.18,3.1a6.7,6.7,0,0,0,3.79-1.29c1.26-.86,2.56-6.3,2.9-7.91a1.49,1.49,0,0,1,1.55-1.2h.35a1.53,1.53,0,0,1,1.72,1.72l.18,19.91a1.52,1.52,0,0,1-1.72,1.72h-.35a1.47,1.47,0,0,1-1.54-1.21,5.79,5.79,0,0,0-2.41-3.7,6.72,6.72,0,0,0-3.79-1.29c-10.06,0-20.23.13-30.32.13a1.52,1.52,0,0,1-1.72-1.72v-.34a1.6,1.6,0,0,1,1.21-1.73,5.06,5.06,0,0,0,3.7-2.32,7.09,7.09,0,0,0,1.29-3.87v-69.3a6.7,6.7,0,0,0-1.29-3.79,5.76,5.76,0,0,0-3.7-2.41,1.48,1.48,0,0,1-1.21-1.55v-.34a1.52,1.52,0,0,1,1.72-1.72h28.93a1.52,1.52,0,0,1,1.72,1.72v.34a1.49,1.49,0,0,1-1.2,1.55Zm-60.53,85.48a31.55,31.55,0,0,1-14.63-3.36,34.43,34.43,0,0,1-11.2-9.12,41.42,41.42,0,0,1-7.14-13.61A54.79,54.79,0,0,1,466,248a56.7,56.7,0,0,1,2.41-16.79,45.43,45.43,0,0,1,6.72-13.69,31.68,31.68,0,0,1,10.42-9.21,27.89,27.89,0,0,1,13.68-3.36,26.53,26.53,0,0,1,13.35,3.1,28.63,28.63,0,0,1,9,7.83,36.82,36.82,0,0,1,5.43,10.42,70.81,70.81,0,0,1,2.75,10.93,57.63,57.63,0,0,1,.86,9.3,27.32,27.32,0,0,1-.34,5.43H486.13q.69,13.43,6.11,21.26T506.79,281a19,19,0,0,0,6.8-1,13.58,13.58,0,0,0,4.22-2.41,9.35,9.35,0,0,0,2.76-3.61l-1.55-.09a9.92,9.92,0,0,1-3.36-.86,8.31,8.31,0,0,1-3.27-2.67,9.53,9.53,0,0,1,1.2-11.71,8.76,8.76,0,0,1,6.29-2.58,10.25,10.25,0,0,1,5.94,2.15q3,2.16,3,7.15a25.48,25.48,0,0,1-6.71,16.87,26.81,26.81,0,0,1-8.61,6.2,28.25,28.25,0,0,1-12.06,2.41Zm-2.24-79.55a6.7,6.7,0,0,0-5.07,2.67,23.4,23.4,0,0,0-4.05,7.32,63.3,63.3,0,0,0-2.84,10.84A86.45,86.45,0,0,0,486,245.56h24.28q0-5.85-.52-11.88a75.44,75.44,0,0,0-1.72-11,25.38,25.38,0,0,0-3.36-8.18A6.38,6.38,0,0,0,499.21,211.3Z"/><g class="g"><path class="h" d="M468.44,260s35.2-20.71,55.51-9.29-3.17-3.8,46.34,15.87-10.16,33.64-10.16,33.64L475.08,297S467.8,261.89,468.44,260Z"/></g><path class="i" d="M370.41,237.13a6.38,6.38,0,0,0-4.48,2,17.29,17.29,0,0,0-3.61,5.31,36.85,36.85,0,0,0-2.5,7.8,49.64,49.64,0,0,0,0,19.23,36.77,36.77,0,0,0,2.5,7.81,16.11,16.11,0,0,0,3.61,5.22,6.53,6.53,0,0,0,4.48,1.89c.8,0,1.9-.05,3.27-.17a9.71,9.71,0,0,0,4.22-1.46,14.7,14.7,0,0,0,4.14-4,20.67,20.67,0,0,0,3-7.89V250.67a20.67,20.67,0,0,0-3-7.89,14.7,14.7,0,0,0-4.14-4,9.71,9.71,0,0,0-4.22-1.46c-1.37-.12-2.47-.17-3.27-.17Zm100.31-32.2a1.52,1.52,0,0,1,1.72,1.72V207c0,.81-.46,1.32-1.38,1.55a5.3,5.3,0,0,0-3.53,2.24,20.9,20.9,0,0,0-2,4L442,290.85h-7.23l-25-76.62a11.73,11.73,0,0,0-1.9-3.79,4.57,4.57,0,0,0-4-1.9,1.83,1.83,0,0,1-1.12-.51,1.43,1.43,0,0,1-.6-1v-.34a1.52,1.52,0,0,1,1.72-1.72h27.56a1.52,1.52,0,0,1,1.72,1.72V207c0,.81-.46,1.32-1.38,1.55a2.88,2.88,0,0,0-2.41,3.79l15.5,45.81,13.43-43.4a9.62,9.62,0,0,0,.6-3.79c-.06-1.26-.89-2.06-2.5-2.41a1.53,1.53,0,0,1-1.37-1.55v-.34a1.52,1.52,0,0,1,1.72-1.72ZM370.41,290.85a33.55,33.55,0,0,1-12.31-2.24,30.63,30.63,0,0,1-10-6.22,30.3,30.3,0,0,1-6.71-9.24,26,26,0,0,1-2.5-11.31,26.57,26.57,0,0,1,2.5-11.4,29.93,29.93,0,0,1,6.71-9.32,30.66,30.66,0,0,1,10-6.23,33.76,33.76,0,0,1,12.31-2.24,33.36,33.36,0,0,1,14.64,3.42V222.46a18.37,18.37,0,0,0-1.9-6.68,15.23,15.23,0,0,0-4-4.74c-1.78-1.44-4.34-2.15-7.67-2.15a20.74,20.74,0,0,0-7.74,1.2,10,10,0,0,0-4.14,2.76A8.17,8.17,0,0,1,364,216a8.85,8.85,0,0,1,1.64,5.26,8.74,8.74,0,0,1-2.58,6.28,8.93,8.93,0,0,1-12.74,0,8.71,8.71,0,0,1-2.59-6.28c0-.12.09-1,.26-2.76a11.29,11.29,0,0,1,2.58-5.6,20.61,20.61,0,0,1,7.58-5.51q5.25-2.49,15.41-2.49a57.91,57.91,0,0,1,10.68,1,29,29,0,0,1,10.16,4,23.29,23.29,0,0,1,7.66,8q3,5.07,3,13.34V281a6.94,6.94,0,0,0,1.21,3.78,5.43,5.43,0,0,0,3.61,2.42c.92.23,1.38.74,1.38,1.55v.34a1.52,1.52,0,0,1-1.72,1.72H385.05v-3.41A33.49,33.49,0,0,1,370.41,290.85Z"/><g class="j"><path class="k" d="M494.48,273.45s-13.16-16.54-62.73-9.3-55.14,18.6-79.3,27.23,4.54,6.9,31.95,4,52.83-39.4,86.7-22,23.38,0,23.38,0ZM451,250.92s10.49,17.42-23.38,0-59.3,19.06-86.71,22-56.11,4.63-31.95-4,29.73-20,79.3-27.23S451,250.92,451,250.92Z"/></g><path class="l" d="M325.32,224.38a8.81,8.81,0,0,1,8.95-8.95,6,6,0,0,0-2.41-2.41,10.25,10.25,0,0,0-5.17-1q-6.7,0-10.84,3.61a23.86,23.86,0,0,0-6.29,8.61,41.35,41.35,0,0,0-2.93,10.16,60.25,60.25,0,0,0-.77,8.44V281a6.67,6.67,0,0,0,1.29,3.78,5.76,5.76,0,0,0,3.7,2.42c.92.23,1.38.74,1.38,1.55v.34a1.52,1.52,0,0,1-1.72,1.72h-29.1a1.52,1.52,0,0,1-1.73-1.72v-.34c0-.81.46-1.32,1.38-1.55a5.43,5.43,0,0,0,3.62-2.42,7,7,0,0,0,1.2-3.78v-66.3a7.06,7.06,0,0,0-1.2-3.79,5.45,5.45,0,0,0-3.62-2.41c-.92-.23-1.38-.74-1.38-1.55v-.34a1.52,1.52,0,0,1,1.73-1.72h24.45v7.23c-.12.11.26-.2,1.12-.95a22.34,22.34,0,0,1,3.79-2.49,39.16,39.16,0,0,1,5.94-2.59,25.62,25.62,0,0,1,16.53.35,15.8,15.8,0,0,1,5.85,4.13,15.32,15.32,0,0,1,3.19,5.86,23.4,23.4,0,0,1,.94,6.54,11.19,11.19,0,0,1-2.58,7.06,7.84,7.84,0,0,1-6.37,3.27,8.81,8.81,0,0,1-8.95-9Z"/><g class="m"><path class="n" d="M364.68,203.14H351.82c-1.57,0-2.86,2-2.86,4.54V301.5c0,2.49,1.29,4.53,2.86,4.53h12.86c1.57,0,2.86-2,2.86-4.53V207.68c0-2.5-1.29-4.54-2.86-4.54ZM250.45,206v12.86c0,1.57-2,2.86-4.54,2.86H152.09c-2.49,0-4.53-1.29-4.53-2.86V206c0-1.57,2-2.86,4.53-2.86h93.82c2.5,0,4.54,1.29,4.54,2.86Zm0,84.31v12.87c0,1.57-2,2.85-4.54,2.85H152.09c-2.49,0-4.53-1.28-4.53-2.85V290.31c0-1.57,2-2.85,4.53-2.85h93.82c2.5,0,4.54,1.28,4.54,2.85Zm0-28.1v12.86c0,1.57-2,2.86-4.54,2.86H152.09c-2.49,0-4.53-1.29-4.53-2.86V262.21c0-1.57,2-2.86,4.53-2.86h93.82c2.5,0,4.54,1.29,4.54,2.86Zm0-28.11V247c0,1.57-2,2.85-4.54,2.85H152.09c-2.49,0-4.53-1.28-4.53-2.85V234.1c0-1.57,2-2.85,4.53-2.85h93.82c2.5,0,4.54,1.28,4.54,2.85Zm-2.86-42.32H234.73c-1.57,0-2.86-2.05-2.86-4.54V93.42c0-2.49,1.29-4.53,2.86-4.53h12.86c1.57,0,2.86,2,2.86,4.53v93.82c0,2.49-1.29,4.54-2.86,4.54Zm-84.31,0H150.41c-1.57,0-2.85-2.05-2.85-4.54V93.42c0-2.49,1.28-4.53,2.85-4.53h12.87c1.57,0,2.85,2,2.85,4.53v93.82c0,2.49-1.28,4.54-2.85,4.54Zm28.1,0H178.52c-1.57,0-2.86-2.05-2.86-4.54V93.42c0-2.49,1.29-4.53,2.86-4.53h12.86c1.57,0,2.86,2,2.86,4.53v93.82c0,2.49-1.29,4.54-2.86,4.54Zm28.11,0H206.62c-1.57,0-2.85-2.05-2.85-4.54V93.42c0-2.49,1.28-4.53,2.85-4.53h12.87c1.57,0,2.85,2,2.85,4.53v93.82c0,2.49-1.28,4.54-2.85,4.54Zm148.05-2.86V176.06c0-1.57-2-2.86-4.54-2.86H269.19c-2.5,0-4.54,1.29-4.54,2.86v12.86c0,1.57,2,2.86,4.54,2.86H363c2.5,0,4.54-1.29,4.54-2.86Zm0-84.32V91.74c0-1.57-2-2.85-4.54-2.85H269.19c-2.5,0-4.54,1.28-4.54,2.85V104.6c0,1.58,2,2.86,4.54,2.86H363c2.5,0,4.54-1.28,4.54-2.86Zm0,28.11V119.85c0-1.57-2-2.86-4.54-2.86H269.19c-2.5,0-4.54,1.29-4.54,2.86v12.86c0,1.57,2,2.86,4.54,2.86H363c2.5,0,4.54-1.29,4.54-2.86Zm0,28.1V148c0-1.57-2-2.85-4.54-2.85H269.19c-2.5,0-4.54,1.28-4.54,2.85v12.86c0,1.58,2,2.86,4.54,2.86H363c2.5,0,4.54-1.28,4.54-2.86Zm-87.17,42.33H267.5c-1.57,0-2.85,2-2.85,4.54V301.5c0,2.49,1.28,4.53,2.85,4.53h12.87c1.57,0,2.85-2,2.85-4.53V207.68c0-2.5-1.28-4.54-2.85-4.54Zm28.1,0H295.61c-1.57,0-2.86,2-2.86,4.54V301.5c0,2.49,1.29,4.53,2.86,4.53h12.86c1.57,0,2.86-2,2.86-4.53V207.68c0-2.5-1.29-4.54-2.86-4.54Zm28.1,0H323.71c-1.57,0-2.85,2-2.85,4.54V301.5c0,2.49,1.28,4.53,2.85,4.53h12.86c1.58,0,2.86-2,2.86-4.53V207.68C339.43,205.18,338.15,203.14,336.57,203.14Z"/></g><path class="e" d="M468.2,326.59a3.34,3.34,0,0,1-1,2.42,3.4,3.4,0,1,1,1-2.42Zm18,3.08a12.43,12.43,0,0,1-5.75-1.36,15.72,15.72,0,0,1-4.7-3.72,17.48,17.48,0,0,1-3.19-5.54,19.73,19.73,0,0,1-1.16-6.84,19.51,19.51,0,0,1,1.19-6.84,18.48,18.48,0,0,1,3.23-5.58A14.76,14.76,0,0,1,480.7,296a13.6,13.6,0,0,1,6-1.37q4.77,0,7.19,2.31a7.52,7.52,0,0,1,2.42,5.62,4.26,4.26,0,0,1-1,2.8,3.27,3.27,0,0,1-2.6,1.27,3.6,3.6,0,0,1-3.64-3.65,3.47,3.47,0,0,1,.84-2.32,3.81,3.81,0,0,1,2.1-1.26,2,2,0,0,0-.14-.46,1.91,1.91,0,0,0-.52-.73,3.94,3.94,0,0,0-1.16-.67,5.5,5.5,0,0,0-2-.31,6.24,6.24,0,0,0-3.05.84,8.36,8.36,0,0,0-2.73,2.63,15,15,0,0,0-2,4.63,26.1,26.1,0,0,0-.77,6.84,17,17,0,0,0,.73,5.22,13,13,0,0,0,2,3.9,8.37,8.37,0,0,0,2.91,2.45,7.89,7.89,0,0,0,3.58.84,5.64,5.64,0,0,0,3.12-.84,9,9,0,0,0,2.14-1.89,12.26,12.26,0,0,0,1.54-2.74h1.61a9.3,9.3,0,0,1-.63,3,11.75,11.75,0,0,1-2,3.48,12.26,12.26,0,0,1-3.43,2.87,9.57,9.57,0,0,1-4.88,1.19ZM511,294.6a9.69,9.69,0,0,1,5,1.37,13.64,13.64,0,0,1,4.08,3.75,18.64,18.64,0,0,1,2.75,5.58,24.36,24.36,0,0,1,0,13.68,18.7,18.7,0,0,1-2.75,5.57,13.81,13.81,0,0,1-4.08,3.76,9.68,9.68,0,0,1-5,1.36,9.87,9.87,0,0,1-5-1.36,13.12,13.12,0,0,1-4.08-3.76,19.71,19.71,0,0,1-2.75-5.57,23.44,23.44,0,0,1,0-13.68,19.64,19.64,0,0,1,2.75-5.58A13,13,0,0,1,506,296a9.88,9.88,0,0,1,5-1.37Zm0,32.48a2.34,2.34,0,0,0,1.83-1.16,11.23,11.23,0,0,0,1.47-3.21,31.43,31.43,0,0,0,1-4.76,44.61,44.61,0,0,0,0-11.62,30.9,30.9,0,0,0-1-4.76,11.3,11.3,0,0,0-1.47-3.22,2,2,0,0,0-3.65,0,11.57,11.57,0,0,0-1.48,3.22,29.83,29.83,0,0,0-1,4.76,43.47,43.47,0,0,0,0,11.62,30.32,30.32,0,0,0,1,4.76,11.49,11.49,0,0,0,1.48,3.21,2.33,2.33,0,0,0,1.82,1.16Zm57.32,1.05a.65.65,0,0,1,.49.7V329a.62.62,0,0,1-.7.7H556.27a.62.62,0,0,1-.71-.7v-.14a.65.65,0,0,1,.5-.7,2.35,2.35,0,0,0,1.5-1,2.75,2.75,0,0,0,.53-1.54V304.77a13,13,0,0,0-.6-4.24,2.48,2.48,0,0,0-2.63-1.72,3.16,3.16,0,0,0-1.79.49,4.33,4.33,0,0,0-1.22,1.23,6,6,0,0,0-.77,1.65,8.26,8.26,0,0,0-.36,1.75v21.68a2.75,2.75,0,0,0,.53,1.54,2.34,2.34,0,0,0,1.51,1,.66.66,0,0,1,.56.7V329a.62.62,0,0,1-.7.7H540.76a.62.62,0,0,1-.7-.7v-.14a.66.66,0,0,1,.56-.7,2.23,2.23,0,0,0,1.48-1,2.93,2.93,0,0,0,.49-1.54V304.77a13,13,0,0,0-.6-4.24,2.49,2.49,0,0,0-2.63-1.72,3.09,3.09,0,0,0-2,.6,4.63,4.63,0,0,0-1.27,1.47,6.72,6.72,0,0,0-.7,1.93,10,10,0,0,0-.21,2v21.05a2.26,2.26,0,0,0,.53,1.43,2.48,2.48,0,0,0,1.51.88.66.66,0,0,1,.56.7V329a.62.62,0,0,1-.7.7H525.26a.62.62,0,0,1-.7-.7v-.14a.66.66,0,0,1,.56-.7,2.26,2.26,0,0,0,1.4-.88,2.71,2.71,0,0,0,.56-1.43V298.53a2.71,2.71,0,0,0-.56-1.44,2.31,2.31,0,0,0-1.4-.88.66.66,0,0,1-.56-.7v-.14a.62.62,0,0,1,.7-.7h10v3.65a10.74,10.74,0,0,1,2.6-2.56,7.19,7.19,0,0,1,4.28-1.16,7.5,7.5,0,0,1,7.92,5,13,13,0,0,1,1.06-1.75,7.16,7.16,0,0,1,1.54-1.62,8.22,8.22,0,0,1,2.14-1.15,8,8,0,0,1,2.84-.46,9.1,9.1,0,0,1,4.52,1,7.1,7.1,0,0,1,2.63,2.49,9.09,9.09,0,0,1,1.2,3.3,22.89,22.89,0,0,1,.28,3.4v20.84a2.74,2.74,0,0,0,.52,1.54A2.37,2.37,0,0,0,568.26,328.13Z"/><path class="l" d="M343.82,154.36a7.47,7.47,0,0,1,5.94,3,15.58,15.58,0,0,1,3.28,7.4,23.48,23.48,0,0,1-.52,9.65,20.62,20.62,0,0,1-5.68,9.64,34.69,34.69,0,0,1-12.23,7.4c-5.22,2-11.85,3-19.89,3a161.05,161.05,0,0,1-21.61-1.38,158.34,158.34,0,0,1-19.2-3.79v12.74l-.58,143.37a82.92,82.92,0,0,1-2.84,21.95,49.55,49.55,0,0,1-8.5,17.3A39,39,0,0,1,247.79,396a46.33,46.33,0,0,1-20,4.05q-13.09,0-21.61-5.17a34.26,34.26,0,0,1-12.75-12.91,35,35,0,0,1-4.3-16.7,38.45,38.45,0,0,1,3.53-16.71,32.68,32.68,0,0,1,10.85-12.91c4.81-3.43,10.67-5.17,17.56-5.17a23.64,23.64,0,0,1,12,2.84,21.25,21.25,0,0,1,7.58,7.15,21.81,21.81,0,0,1,3.18,9.3,18.56,18.56,0,0,1-1.29,9.3,16.58,16.58,0,0,1-5.77,7.14A17,17,0,0,1,226.55,369c.57-.58,1.21-2.05,1.84-4.4a19.43,19.43,0,0,0,.51-7.32,12.63,12.63,0,0,0-3-6.8c-1.66-2-4.57-3-8.7-3a14.64,14.64,0,0,0-9.81,3.36,18.72,18.72,0,0,0-5.68,8.26,27.74,27.74,0,0,0-1.38,10.77,24.5,24.5,0,0,0,3.1,10.76,24.1,24.1,0,0,0,7.75,8.26c3.31,2.23,7.51,3.36,12.57,3.36a22.35,22.35,0,0,0,13.4-4.05,33.66,33.66,0,0,0,9.15-9.81,45.48,45.48,0,0,0,5.28-12.31,47.79,47.79,0,0,0,1.73-11.54c.25-57.06-.06-114,1.74-171-6.08-1.84-3.21-.76-8.65-2.76s-10.68-3.88-15.67-5.6A148.61,148.61,0,0,0,216.31,171a60.32,60.32,0,0,0-13.69-1.63,57.86,57.86,0,0,0-15.84,2.15,42.68,42.68,0,0,0-13.26,6.2,30.79,30.79,0,0,0-9,10,27.44,27.44,0,0,0-3.35,13.69,17.88,17.88,0,0,0,3.18,10.77,19.82,19.82,0,0,0,7.92,6.54,22,22,0,0,0,10.25,1.89,20.51,20.51,0,0,0,10.24-3.27,23.35,23.35,0,0,0,7.92-8.87q3.2-5.85,3.19-14.81a15.79,15.79,0,0,0-.86-5.85,12.73,12.73,0,0,0-1.72-3.27,6.14,6.14,0,0,0-2.59-1.72c0-.81,1-1.17,3.1-1.12a13.28,13.28,0,0,1,6.72,2.41,23.27,23.27,0,0,1,6.72,7.14q3.09,4.81,3.09,12.92,0,10.68-4.64,17.48A28.78,28.78,0,0,1,202,231.67a32.77,32.77,0,0,1-15.15,3,33.39,33.39,0,0,1-15.15-4,32.29,32.29,0,0,1-11.63-10.85q-4.65-7.06-4.65-17.39,0-13.1,5.51-21.18a38.56,38.56,0,0,1,14.18-12.66,59.6,59.6,0,0,1,19.17-6.11,140.4,140.4,0,0,1,20.46-1.55,113.48,113.48,0,0,1,19.69,2q11.1,2,23.22,4.3c8.06,1.54,16.28,3,24.6,4.31a154.39,154.39,0,0,0,24,2q13.08,0,20.57-2.93c5-1.95,8.77-4.13,11.28-6.54A19.12,19.12,0,0,0,343.82,154.36Z"/><g class="o"><path class="n" d="M340.73,280.42H327.87c-1.57,0-2.86,2-2.86,4.53v93.82c0,2.49,1.29,4.54,2.86,4.54h12.86c1.58,0,2.86-2.05,2.86-4.54V285c0-2.49-1.28-4.53-2.86-4.53ZM226.5,283.27v12.86c0,1.58-2,2.86-4.54,2.86H128.15c-2.5,0-4.54-1.28-4.54-2.86V283.27c0-1.57,2-2.85,4.54-2.85H222c2.5,0,4.54,1.28,4.54,2.85Zm0,84.32v12.86c0,1.57-2,2.86-4.54,2.86H128.15c-2.5,0-4.54-1.29-4.54-2.86V367.59c0-1.57,2-2.86,4.54-2.86H222c2.5,0,4.54,1.29,4.54,2.86Zm0-28.11v12.86c0,1.58-2,2.86-4.54,2.86H128.15c-2.5,0-4.54-1.28-4.54-2.86V339.48c0-1.57,2-2.85,4.54-2.85H222c2.5,0,4.54,1.28,4.54,2.85Zm0-28.1v12.86c0,1.57-2,2.86-4.54,2.86H128.15c-2.5,0-4.54-1.29-4.54-2.86V311.38c0-1.57,2-2.86,4.54-2.86H222c2.5,0,4.54,1.29,4.54,2.86Zm-2.86-42.33H210.78c-1.57,0-2.86-2-2.86-4.54V170.7c0-2.5,1.29-4.54,2.86-4.54h12.86c1.58,0,2.86,2,2.86,4.54v93.81c0,2.5-1.28,4.54-2.86,4.54Zm-84.31,0H126.47c-1.57,0-2.86-2-2.86-4.54V170.7c0-2.5,1.29-4.54,2.86-4.54h12.86c1.57,0,2.86,2,2.86,4.54v93.81c0,2.5-1.29,4.54-2.86,4.54Zm28.1,0H154.57c-1.57,0-2.85-2-2.85-4.54V170.7c0-2.5,1.28-4.54,2.85-4.54h12.86c1.58,0,2.86,2,2.86,4.54v93.81c0,2.5-1.28,4.54-2.86,4.54Zm28.11,0H182.68c-1.57,0-2.86-2-2.86-4.54V170.7c0-2.5,1.29-4.54,2.86-4.54h12.86c1.57,0,2.86,2,2.86,4.54v93.81c0,2.5-1.29,4.54-2.86,4.54Zm148-2.86V253.33c0-1.57-2-2.86-4.54-2.86H245.24c-2.5,0-4.54,1.29-4.54,2.86v12.86c0,1.57,2,2.86,4.54,2.86h93.81c2.5,0,4.54-1.29,4.54-2.86Zm0-84.31V169c0-1.58-2-2.86-4.54-2.86H245.24c-2.5,0-4.54,1.28-4.54,2.86v12.86c0,1.57,2,2.86,4.54,2.86h93.81c2.5,0,4.54-1.29,4.54-2.86Zm0,28.1V197.12c0-1.57-2-2.86-4.54-2.86H245.24c-2.5,0-4.54,1.29-4.54,2.86V210c0,1.57,2,2.86,4.54,2.86h93.81c2.5,0,4.54-1.29,4.54-2.86Zm0,28.11V225.23c0-1.58-2-2.86-4.54-2.86H245.24c-2.5,0-4.54,1.28-4.54,2.86v12.86c0,1.57,2,2.86,4.54,2.86h93.81c2.5,0,4.54-1.29,4.54-2.86Zm-87.17,42.33H243.56c-1.57,0-2.86,2-2.86,4.53v93.82c0,2.49,1.29,4.54,2.86,4.54h12.86c1.57,0,2.86-2.05,2.86-4.54V285c0-2.49-1.29-4.53-2.86-4.53Zm28.1,0H271.66c-1.57,0-2.86,2-2.86,4.53v93.82c0,2.49,1.29,4.54,2.86,4.54h12.86c1.58,0,2.86-2.05,2.86-4.54V285c0-2.49-1.28-4.53-2.86-4.53Zm28.11,0H299.77c-1.57,0-2.86,2-2.86,4.53v93.82c0,2.49,1.29,4.54,2.86,4.54h12.86c1.57,0,2.86-2.05,2.86-4.54V285C315.49,282.46,314.2,280.42,312.63,280.42Z"/></g></svg>