<svg xmlns="http://www.w3.org/2000/svg" xmlns:xlink="http://www.w3.org/1999/xlink" viewBox="0 0 472.21 472.21"><defs><style>.a{fill:none;}.b{fill:#dd9e31;}.c{clip-path:url(#a);}.d{fill:#d17c2f;fill-rule:evenodd;}</style><clipPath id="a"><circle class="a" cx="236.11" cy="236.11" r="236.11"/></clipPath></defs><title>souvenir</title><circle class="b" cx="236.11" cy="236.11" r="236.11"/><g class="c"><path class="d" d="M414.77,245.58H393.32c-2.62,0-4.76,3.41-4.76,7.57V409.61c0,4.16,2.14,7.57,4.76,7.57h21.45c2.63,0,4.77-3.41,4.77-7.57V253.15c0-4.16-2.14-7.57-4.77-7.57Zm-190.5,4.77V271.8c0,2.62-3.41,4.76-7.58,4.76H60.24c-4.16,0-7.57-2.14-7.57-4.76V250.35c0-2.63,3.41-4.77,7.57-4.77H216.69c4.17,0,7.58,2.14,7.58,4.77Zm0,140.61v21.45c0,2.62-3.41,4.77-7.58,4.77H60.24c-4.16,0-7.57-2.15-7.57-4.77V391c0-2.62,3.41-4.77,7.57-4.77H216.69c4.17,0,7.58,2.15,7.58,4.77Zm0-46.87v21.45c0,2.62-3.41,4.76-7.58,4.76H60.24c-4.16,0-7.57-2.14-7.57-4.76V344.09c0-2.62,3.41-4.77,7.57-4.77H216.69c4.17,0,7.58,2.15,7.58,4.77Zm0-46.87v21.45c0,2.62-3.41,4.76-7.58,4.76H60.24c-4.16,0-7.57-2.14-7.57-4.76V297.22c0-2.62,3.41-4.77,7.57-4.77H216.69c4.17,0,7.58,2.15,7.58,4.77Zm-4.77-70.59H198.05c-2.62,0-4.77-3.41-4.77-7.57V62.6c0-4.16,2.15-7.57,4.77-7.57H219.5c2.62,0,4.77,3.41,4.77,7.57V219.06c0,4.16-2.15,7.57-4.77,7.57Zm-140.61,0H57.44c-2.63,0-4.77-3.41-4.77-7.57V62.6c0-4.16,2.14-7.57,4.77-7.57H78.89c2.62,0,4.76,3.41,4.76,7.57V219.06c0,4.16-2.14,7.57-4.76,7.57Zm46.86,0H104.3c-2.61,0-4.76-3.41-4.76-7.57V62.6c0-4.16,2.15-7.57,4.76-7.57h21.45c2.63,0,4.77,3.41,4.77,7.57V219.06c0,4.16-2.14,7.57-4.77,7.57Zm46.88,0H151.18c-2.62,0-4.77-3.41-4.77-7.57V62.6c0-4.16,2.15-7.57,4.77-7.57h21.45c2.62,0,4.76,3.41,4.76,7.57V219.06c0,4.16-2.14,7.57-4.76,7.57Zm246.91-4.77V200.41c0-2.62-3.41-4.76-7.57-4.76H255.51c-4.16,0-7.57,2.14-7.57,4.76v21.45c0,2.62,3.41,4.77,7.57,4.77H412c4.16,0,7.57-2.15,7.57-4.77Zm0-140.61V59.79c0-2.61-3.41-4.76-7.57-4.76H255.51c-4.16,0-7.57,2.15-7.57,4.76V81.25c0,2.62,3.41,4.76,7.57,4.76H412c4.16,0,7.57-2.14,7.57-4.76Zm0,46.87V106.67c0-2.62-3.41-4.77-7.57-4.77H255.51c-4.16,0-7.57,2.15-7.57,4.77v21.45c0,2.62,3.41,4.76,7.57,4.76H412c4.16,0,7.57-2.14,7.57-4.76Zm0,46.87V153.54c0-2.62-3.41-4.77-7.57-4.77H255.51c-4.16,0-7.57,2.15-7.57,4.77V175c0,2.62,3.41,4.77,7.57,4.77H412c4.16,0,7.57-2.15,7.57-4.77ZM274.16,245.58H252.71c-2.62,0-4.77,3.41-4.77,7.57V409.61c0,4.16,2.15,7.57,4.77,7.57h21.45c2.62,0,4.77-3.41,4.77-7.57V253.15c0-4.16-2.15-7.57-4.77-7.57Zm46.87,0H299.58c-2.62,0-4.76,3.41-4.76,7.57V409.61c0,4.16,2.14,7.57,4.76,7.57H321c2.62,0,4.76-3.41,4.76-7.57V253.15c0-4.16-2.14-7.57-4.76-7.57Zm46.87,0H346.45c-2.62,0-4.77,3.41-4.77,7.57V409.61c0,4.16,2.15,7.57,4.77,7.57H367.9c2.62,0,4.77-3.41,4.77-7.57V253.15C372.67,249,370.52,245.58,367.9,245.58Z"/></g></svg>