<svg xmlns="http://www.w3.org/2000/svg" xmlns:xlink="http://www.w3.org/1999/xlink" viewBox="0 0 697.75 470.15"><defs><style>.a{fill:none;}.b{fill:#4a0b20;}.c{clip-path:url(#a);}.d{fill:#992429;fill-rule:evenodd;}</style><clipPath id="a"><circle class="a" cx="357.12" cy="235.08" r="235.08"/></clipPath></defs><title>whereToSleep</title><circle class="b" cx="357.12" cy="235.08" r="235.08"/><g class="c"><path class="d" d="M48.76,64.79H164.69a48.9,48.9,0,0,1,48.75,48.75v255.7A48.9,48.9,0,0,1,164.69,418H48.76A48.9,48.9,0,0,1,0,369.24V113.54A48.9,48.9,0,0,1,48.76,64.79Zm484.3,0H649a48.9,48.9,0,0,1,48.76,48.75v255.7A48.9,48.9,0,0,1,649,418H533.06a48.9,48.9,0,0,1-48.76-48.76V113.54a48.9,48.9,0,0,1,48.76-48.75Zm-242.69,0H406.3a48.9,48.9,0,0,1,48.75,48.75v255.7A48.9,48.9,0,0,1,406.3,418H290.37a48.9,48.9,0,0,1-48.76-48.76V113.54A48.9,48.9,0,0,1,290.37,64.79Z"/></g></svg>