<?xml version="1.0" encoding="utf-8"?>
<!-- Generator: Adobe Illustrator 23.0.0, SVG Export Plug-In . SVG Version: 6.00 Build 0)  -->
<svg version="1.1" id="Capa_1" xmlns="http://www.w3.org/2000/svg" xmlns:xlink="http://www.w3.org/1999/xlink" x="0px" y="0px"
	 viewBox="0 0 512 512" style="enable-background:new 0 0 512 512;" xml:space="preserve">
<style type="text/css">
	.st0{fill:#C7D6DB;}
</style>
<path class="st0" d="M3.7,509.7c6.2-18.2,12-35.4,17.8-52.6c8.3-24.4,16.7-48.8,24.6-73.3c1-3.1,0.6-7.5-0.9-10.3
	c-82.4-147.5-0.4-328,165-362.9c136.2-28.7,271.4,63,294.4,199.7c22.4,133.1-67.4,259.9-200.4,282.9c-55.2,9.6-107.9,1.8-157.8-23.7
	c-4.3-2.2-8-2.3-12.6-0.8c-40.8,13.1-81.7,26-122.6,39C9,508.2,6.9,508.8,3.7,509.7z M65.5,449.2c4.5-1.3,7.4-2,10.2-2.9
	c21.4-6.8,42.8-13.8,64.4-20.3c3-0.9,7.5-0.4,10.2,1.2c49.7,29.7,102.8,38.2,159.1,25.2C416.2,427.7,486.5,319.6,465.3,213
	C442.9,100.8,336.9,28.3,223.7,47.7C76.2,73,3.5,242.6,87.2,366.2c3.3,4.9,3.6,8.9,1.8,14.2C81.1,402.7,73.6,425.2,65.5,449.2z"/>
<path class="st0" d="M139.2,194.3c0.8-17,7.1-31.4,18.1-44.1c9.2-10.6,21.3-12.3,33.9-11.5c3.2,0.2,7.4,4.3,9,7.7
	c7.5,16.4,14.5,33.1,21.1,49.8c1.1,2.8,0.6,7.4-1,10c-4,6.6-8.6,12.9-13.8,18.5c-4.7,5.1-5.5,9.5-1.8,15.6c20,32.5,47.3,56,82.9,70
	c5.1,2,9,1.2,12.5-3c5.9-7.3,12.2-14.3,17.7-21.8c3.7-5,8-6.7,13.3-4.2c17,7.9,34,15.7,50.7,24.4c2.5,1.3,4.3,6.7,4.2,10.1
	c-0.8,25.1-18.4,44.2-43.1,49.4c-13.9,2.9-26.7,1.1-40.1-2.5c-58.2-15.4-101.9-50.1-135.6-99c-11.2-16.3-22.1-32.7-26-52.5
	C140.1,205.5,139.8,199.9,139.2,194.3z"/>
</svg>
